<?xml version="1.0" encoding="UTF-8"?>
<svg width="51px" height="74px" viewBox="0 0 51 74" version="1.1" xmlns="http://www.w3.org/2000/svg" xmlns:xlink="http://www.w3.org/1999/xlink">
    <!-- Generator: Sketch 49 (51002) - http://www.bohemiancoding.com/sketch -->
    <title>Tata 150 Logo Unit - Colour</title>
    <desc>Created with Sketch.</desc>
    <defs></defs>
    <g id="home_320_1440" stroke="none" stroke-width="1" fill="none" fill-rule="evenodd">
        <g id="home_1440_01_tata_150" transform="translate(-1241.000000, -32.000000)">
            <g id="Group">
                <g transform="translate(-205.000000, -21.000000)" id="Group-10">
                    <g transform="translate(205.000000, 21.000000)">
                        <g id="Tata-150-Logo-Unit---Colour" transform="translate(1216.000000, 19.000000)">
                            <path d="M48.4412007,63.4086707 C48.4351196,63.4127133 48.4297142,63.4167559 48.4236332,63.4214722 C48.4297142,63.4167559 48.4351196,63.4127133 48.4412007,63.4086707" id="Fill-3" fill="#DA3233"></path>
                            <path d="M48.8414069,62.7901482 C48.8360015,62.813056 48.8305961,62.8346163 48.824515,62.8575241 C48.8305961,62.8346163 48.8360015,62.813056 48.8414069,62.790822 L48.8414069,62.7901482" id="Fill-4" fill="#DA3233"></path>
                            <path d="M48.6523416,63.1978068 C48.6462605,63.2058919 48.6408551,63.2133033 48.6354497,63.2207146 C48.6408551,63.2133033 48.6462605,63.2058919 48.6523416,63.1978068" id="Fill-5" fill="#DA3233"></path>
                            <path d="M48.7236534,63.0889454 C48.718248,63.0983781 48.7128426,63.1071369 48.7081129,63.1158958 C48.7128426,63.1071369 48.718248,63.0977043 48.7236534,63.0889454" id="Fill-6" fill="#DA3233"></path>
                            <path d="M48.7857393,62.9494833 C48.7830366,62.9562209 48.7810096,62.9636322 48.7783069,62.969696 C48.7810096,62.9636322 48.7837123,62.9562209 48.7857393,62.9494833" id="Fill-7" fill="#DA3233"></path>
                            <polyline id="Fill-8" fill="#FFFFFF" points="25.0816578 44.413153 37.1165785 44.413153 37.1165785 48.0650211 33.662963 48.0650211 33.662963 56.843398 28.6467372 56.843398 28.6467372 48.0650211 25.0816578 48.0650211 25.0816578 44.413153"></polyline>
                            <polyline id="Fill-9" fill="#FFFFFF" points="43.2116402 49.4344936 40.6760141 56.843398 35.8606702 56.843398 40.5857143 44.413153 45.8137566 44.413153 50.6493827 56.843398 45.7791887 56.843398 43.2116402 49.4344936"></polyline>
                            <polyline id="Fill-10" fill="#FFFFFF" points="49.5010582 44.413153 61.5393298 44.413153 61.5393298 48.0650211 58.0832451 48.0650211 58.0832451 56.843398 53.073545 56.843398 53.073545 48.0650211 49.5010582 48.0650211 49.5010582 44.413153"></polyline>
                            <polyline id="Fill-11" fill="#FFFFFF" points="67.635097 49.4344936 65.10194 56.843398 60.2848325 56.843398 65.0075838 44.413153 70.2410935 44.413153 75.075485 56.843398 70.20194 56.843398 67.635097 49.4344936"></polyline>
                            <path d="M67.7261023,21.5988698 C67.2805996,20.7198889 66.6910053,19.8785435 65.9566138,19.090134 C64.3061728,17.3151133 61.9855379,15.8401208 59.233157,14.8222055 C56.4589065,13.7960244 53.2908289,13.253652 50.0776014,13.253652 C46.8611993,13.253652 43.6971781,13.7960244 40.9262787,14.8222055 C38.1731922,15.8401208 35.8451499,17.3151133 34.1977072,19.090134 C33.4661376,19.8785435 32.8738977,20.7235821 32.4266314,21.5988698 C36.0074074,20.7337824 42.1395062,19.5939915 47.8250441,19.4749299 C48.3763668,19.4631468 48.7520282,19.6363753 49.0045855,19.9525833 C49.3074074,20.3338619 49.2795414,21.7006965 49.2738977,22.3100739 L49.1112875,38.0953244 C49.4320988,38.106404 49.7569665,38.11168 50.0776014,38.11168 C50.4051146,38.11168 50.7232804,38.106404 51.0481481,38.0974348 L50.8832451,22.3100739 C50.880776,21.7006965 50.8537919,20.3338619 51.1539683,19.9525833 C51.407231,19.6363753 51.7873016,19.4631468 52.3326279,19.4749299 C58.0232804,19.5939915 64.1453263,20.732903 67.7261023,21.5988698" id="Fill-12" fill="#FFFFFF"></path>
                            <path d="M68.4955908,23.6496491 C63.2486772,22.4687055 59.7516755,22.2495758 56.2948854,22.0585848 C53.282716,21.8904564 53.2425044,22.9625387 53.5435626,25.0136698 C53.5631393,25.1383592 53.5871252,25.2945286 53.6188713,25.4761987 C54.6280423,31.4421184 55.8805996,36.5746067 56.1005291,37.4474322 C63.4433862,35.7738864 68.738448,31.1359348 68.738448,25.6844247 C68.738448,24.9952038 68.6553792,24.3170626 68.4955908,23.6496491" id="Fill-13" fill="#FFFFFF"></path>
                            <path d="M46.6174603,25.0136698 C46.9162257,22.9625387 46.8751323,21.8904564 43.8677249,22.0585848 C40.4084656,22.2495758 36.9097002,22.4687055 31.6631393,23.6503526 C31.4989418,24.3170626 31.4185185,24.9952038 31.4185185,25.6844247 C31.4185185,28.0368151 32.3800705,30.3199142 34.1977072,32.2776602 C35.8451499,34.0500429 38.1731922,35.5276733 40.9262787,36.545237 C41.9227513,36.9105117 42.9719577,37.2147608 44.0557319,37.4553462 C44.2599647,36.6398532 45.5486772,31.399207 46.5626102,25.3268881 C46.5895944,25.2090575 46.6010582,25.1001961 46.6174603,25.0136698" id="Fill-14" fill="#FFFFFF"></path>
                            <path d="M31.3945326,65.3931485 C31.6710758,65.1608288 31.7063492,64.7491253 31.473545,64.4731907 C31.2405644,64.197432 30.8275132,64.1622587 30.55097,64.3944025 C30.2742504,64.6265463 30.2389771,65.0386016 30.4717813,65.3143603 C30.7049383,65.590119 31.1178131,65.6254681 31.3945326,65.3931485" id="Fill-15" fill="#FFFFFF"></path>
                            <path d="M29.7465608,66.6671255 C29.7186949,66.9917751 29.9599647,67.2773823 30.2853616,67.3051692 C30.6107584,67.3329561 30.8973545,67.0925466 30.9253968,66.767897 C30.9266314,66.7513655 30.924515,66.7355375 30.9246914,66.7193578 C30.9906526,67.3282077 31.5074074,67.8023438 32.1358025,67.8023438 C32.808642,67.8023438 33.354321,67.2582128 33.354321,66.5872821 C33.354321,65.9159996 32.808642,65.3720445 32.1358025,65.3720445 C31.4626102,65.3720445 30.9171076,65.9159996 30.9171076,66.5872821 C30.9171076,66.6011755 30.9186949,66.6147173 30.9190476,66.6287866 C30.8790123,66.3655144 30.6641975,66.1535953 30.3864198,66.1296774 C30.0608466,66.1018905 29.7744268,66.3424759 29.7465608,66.6671255" id="Fill-16" fill="#FFFFFF"></path>
                            <path d="M32.8663139,71.257769 C32.6261023,71.2371926 32.4148148,71.4148178 32.3941799,71.6541721 C32.373545,71.8938782 32.5516755,72.1047421 32.7918871,72.1251427 C33.0320988,72.1455432 33.2433862,71.9680939 33.2638448,71.7285637 C33.2846561,71.4892094 33.1065256,71.2783454 32.8663139,71.257769" id="Fill-17" fill="#FFFFFF"></path>
                            <path d="M33.6641975,68.5585698 C33.6641975,68.0847854 33.2790123,67.7008688 32.8038801,67.7008688 C32.3289242,67.7008688 31.943739,68.0847854 31.943739,68.5585698 C31.943739,69.0321783 32.3289242,69.4162708 32.8038801,69.4162708 C33.2790123,69.4162708 33.6641975,69.0321783 33.6641975,68.5585698" id="Fill-18" fill="#FFFFFF"></path>
                            <path d="M31.4585538,72.1833545 C31.9137566,72.222221 32.3144621,71.8859642 32.3532628,71.4320527 C32.3922399,70.9781413 32.0550265,70.5785726 31.5998236,70.5397061 C31.1447972,70.5010154 30.7440917,70.8372722 30.705291,71.2911837 C30.6661376,71.7449193 31.0035273,72.1443121 31.4585538,72.1833545" id="Fill-19" fill="#FFFFFF"></path>
                            <path d="M30.7818342,70.2748511 C31.4114638,70.2748511 31.9220459,69.7658934 31.9220459,69.13805 C31.9220459,68.5102065 31.4114638,68.0012488 30.7818342,68.0012488 C30.152381,68.0012488 29.6417989,68.5102065 29.6417989,69.13805 C29.6417989,69.7658934 30.152381,70.2748511 30.7818342,70.2748511" id="Fill-20" fill="#FFFFFF"></path>
                            <path d="M34.3992945,65.0262909 C34.3992945,64.6413191 34.0862434,64.3291561 33.7,64.3291561 C33.313933,64.3291561 33.0008818,64.6413191 33.0008818,65.0262909 C33.0008818,65.4114386 33.313933,65.7236016 33.7,65.7236016 C34.0862434,65.7236016 34.3992945,65.4114386 34.3992945,65.0262909" id="Fill-21" fill="#FFFFFF"></path>
                            <path d="M32.5686067,75.0487475 C32.2619048,75.0487475 32.0132275,75.2967193 32.0132275,75.6027271 C32.0132275,75.9087348 32.2619048,76.1567066 32.5686067,76.1567066 C32.875485,76.1567066 33.1241623,75.9087348 33.1241623,75.6027271 C33.1241623,75.2967193 32.875485,75.0487475 32.5686067,75.0487475" id="Fill-22" fill="#FFFFFF"></path>
                            <path d="M41.5238095,66.7054644 C41.8760141,66.7372962 42.187478,66.4784207 42.2195767,66.1272153 C42.2514991,65.7760099 41.9920635,65.4654296 41.6398589,65.4334219 C41.587478,65.4286735 41.5366843,65.4321908 41.4867725,65.4395772 L41.0908289,66.4791242 C41.1957672,66.6039894 41.3481481,66.6894605 41.5238095,66.7054644" id="Fill-23" fill="#FFFFFF"></path>
                            <path d="M42.1421517,72.3293237 C42.3673721,71.9172684 42.4954145,71.444891 42.4954145,70.9426162 C42.4954145,70.7510976 42.4756614,70.5639756 42.4402116,70.3826573 L41.2973545,70.3826573 L41.7992945,69.0618998 C41.4458554,68.6486135 40.9797178,68.33434 40.4467372,68.1700807 L38.3837743,73.585714 C38.7499118,73.751732 39.1536155,73.8500414 39.5820106,73.8500414 C39.7229277,73.8500414 39.8617284,73.8396653 39.9971781,73.8204958 L40.0779541,73.6082249 L40.7470899,73.6082249 C41.3425044,73.3482942 41.8340388,72.8957897 42.1421517,72.3293237" id="Fill-24" fill="#FFFFFF"></path>
                            <path d="M47.0703704,63.349052 C47.0996473,63.3752561 47.1303351,63.4002292 47.1626102,63.4234435 C47.1664903,63.4260815 47.1703704,63.4290713 47.1742504,63.4318851 C47.243739,63.4802484 47.3194004,63.520346 47.4,63.5514744 C47.410582,63.5555193 47.4215168,63.5592125 47.4320988,63.5629057 C47.4622575,63.5734577 47.4929453,63.5826027 47.5241623,63.5903409 C47.5361552,63.5933306 47.5479718,63.596672 47.5599647,63.59931 C47.6021164,63.6081034 47.6447972,63.6154898 47.6887125,63.6195347 C47.7395062,63.6241072 47.7899471,63.6237555 47.8395062,63.6212934 C47.8507937,63.6209416 47.8620811,63.620414 47.8730159,63.6193588 C47.9222222,63.6153139 47.9703704,63.6088068 48.0174603,63.5986066 C48.021164,63.5977272 48.0248677,63.5964962 48.0285714,63.5956168 C48.0738977,63.584889 48.1179894,63.5711714 48.1611993,63.5549917 C48.1684303,63.5521778 48.1758377,63.5497157 48.1830688,63.5469018 C48.2291005,63.52826 48.2738977,63.5069801 48.3165785,63.4825347 C48.3188713,63.4814795 48.3206349,63.4800725 48.3227513,63.4788415 C48.3664903,63.4533408 48.4082892,63.4248505 48.4479718,63.3937221 C48.44903,63.3930186 48.4502646,63.3921393 48.4511464,63.39126 C48.4922399,63.3585488 48.5310406,63.3228479 48.5670194,63.284509 L48.5670194,63.2843331 C48.7239859,63.1170841 48.8289242,62.8990096 48.8513228,62.6534999 C48.9049383,62.0662817 48.4710758,61.5472996 47.8825397,61.494012 C47.2938272,61.4405486 46.7731922,61.8731802 46.7197531,62.4600468 C46.6885362,62.8036899 46.8248677,63.1232394 47.0608466,63.3406104 C47.0638448,63.3432484 47.0671958,63.3462381 47.0703704,63.349052" id="Fill-25" fill="#FFFFFF"></path>
                            <path d="M36.9047619,61.4818772 C37.3839506,61.5254921 37.8075838,61.1734074 37.8511464,60.6955781 C37.894709,60.2177488 37.5414462,59.7953174 37.0624339,59.7518784 C36.5834215,59.7082635 36.159612,60.0603482 36.1160494,60.5381775 C36.0724868,61.0160069 36.4255732,61.4384382 36.9047619,61.4818772" id="Fill-26" fill="#FFFFFF"></path>
                            <path d="M38.9283951,60.8025049 C39.2758377,60.833985 39.5828924,60.5788027 39.6144621,60.2325215 C39.6460317,59.8862404 39.3902998,59.5798809 39.0428571,59.5482249 C38.6955908,59.5169207 38.3883598,59.7722789 38.3567901,60.11856 C38.3253968,60.4648412 38.5813051,60.7708489 38.9283951,60.8025049" id="Fill-27" fill="#FFFFFF"></path>
                            <path d="M33.8504409,73.0296241 C33.8710758,72.7899181 33.6931217,72.57923 33.4529101,72.5586536 C33.2126984,72.5382531 33.0012346,72.7157024 32.980776,72.9552326 C32.9601411,73.1945869 33.1380952,73.4054509 33.3783069,73.4260272 C33.6185185,73.4466036 33.829806,73.2689784 33.8504409,73.0296241" id="Fill-28" fill="#FFFFFF"></path>
                            <path d="M34.4730159,66.40825 C34.4971781,66.1265118 34.2878307,65.8783642 34.0051146,65.8542705 C33.7223986,65.8301767 33.4737213,66.0391062 33.4495591,66.3208443 C33.4252205,66.6027583 33.6347443,66.8507301 33.917284,66.8748238 C34.2,66.8990934 34.4488536,66.6903399 34.4730159,66.40825" id="Fill-29" fill="#FFFFFF"></path>
                            <path d="M32.3874231,65.1208291 C32.5732674,65.1366095 32.7369519,64.9992272 32.7527803,64.8137611 C32.7687949,64.6284807 32.6308084,64.4654785 32.4449641,64.4495124 C32.2591198,64.4339177 32.0954353,64.5711143 32.0796069,64.7563947 C32.0637785,64.9416752 32.2015789,65.104863 32.3874231,65.1208291" id="Fill-30" fill="#FFFFFF"></path>
                            <path d="M26.9166094,66.9117558 C26.72983,66.9117558 26.5786596,67.0627207 26.5786596,67.2487469 C26.5786596,67.4347731 26.72983,67.5855147 26.9166094,67.5855147 C27.1031649,67.5855147 27.2543353,67.4347731 27.2543353,67.2487469 C27.2543353,67.0627207 27.1031649,66.9117558 26.9166094,66.9117558" id="Fill-31" fill="#FFFFFF"></path>
                            <path d="M29.4613757,68.7439331 C29.4613757,68.5471385 29.3014109,68.3876276 29.1038801,68.3876276 C28.9065256,68.3876276 28.7463845,68.5471385 28.7463845,68.7439331 C28.7463845,68.9410795 28.9065256,69.1004145 29.1038801,69.1004145 C29.3014109,69.1004145 29.4613757,68.9410795 29.4613757,68.7439331" id="Fill-32" fill="#FFFFFF"></path>
                            <path d="M27.5932981,68.1294555 C27.3268078,68.1294555 27.1107584,68.3450679 27.1107584,68.6108022 C27.1107584,68.8763606 27.3268078,69.0919729 27.5932981,69.0919729 C27.8597884,69.0919729 28.0758377,68.8763606 28.0758377,68.6108022 C28.0758377,68.3450679 27.8597884,68.1294555 27.5932981,68.1294555" id="Fill-33" fill="#FFFFFF"></path>
                            <path d="M29.5619048,66.7953322 C29.6049383,66.2937609 29.2320988,65.8523359 28.7291005,65.8092486 C28.2261023,65.7663372 27.7834215,66.138119 27.740388,66.6396903 C27.6971781,67.1412616 28.0700176,67.5826865 28.5730159,67.6257738 C29.0760141,67.6686853 29.5188713,67.2969034 29.5619048,66.7953322" id="Fill-34" fill="#FFFFFF"></path>
                            <path d="M36.8908289,76.3739017 L34.4155203,76.3739017 L38.0876543,66.7044092 L39.138448,63.9436567 L42.0567901,63.9436567 L41.7056437,64.8653731 C41.9941799,65.0324462 42.3218695,65.1425387 42.6761905,65.1747223 C42.7447972,65.1808776 42.8126984,65.1828121 42.8804233,65.182988 C42.9089947,65.1831638 42.9372134,65.1822845 42.9654321,65.181581 C42.9998236,65.18035 43.0342152,65.1780637 43.068254,65.1754257 C43.1419753,65.1699739 43.2144621,65.1595977 43.2862434,65.1476388 L43.7440917,63.9427773 L44.9705467,63.9427773 C44.9862434,63.9132318 45.0029982,63.8843897 45.0178131,63.8541406 C45.0268078,63.8353229 45.0365079,63.8172087 45.0451499,63.7982151 C45.0696649,63.7449275 45.0908289,63.6900572 45.1112875,63.6344833 C45.119224,63.6130276 45.1282187,63.5920995 45.1354497,63.5702921 C45.154321,63.5140148 45.1696649,63.4561547 45.1843034,63.397767 C45.1897707,63.3761354 45.1968254,63.3552073 45.2017637,63.333224 C45.2194004,63.252853 45.2336861,63.171251 45.2432099,63.0877144 C45.3070547,63.376663 45.5486772,63.6051136 45.859612,63.6334281 C45.9074074,63.6376489 45.9541446,63.6369455 45.9998236,63.6320212 C46.0216931,63.6295591 46.0421517,63.623052 46.0636684,63.6186554 C46.0865961,63.613907 46.1102293,63.6110931 46.1324515,63.6040584 C46.1626102,63.5945616 46.1906526,63.5808441 46.2190476,63.5676541 C46.2306878,63.5622022 46.2430335,63.558509 46.2544974,63.5525296 C46.289418,63.533536 46.3218695,63.5110251 46.3530864,63.4865796 C46.356261,63.4841175 46.3599647,63.4821829 46.3631393,63.4797208 C46.4994709,63.3692766 46.5931217,63.2080071 46.6155203,63.0214127 C46.6164021,63.0147298 46.6186949,63.0087503 46.6194004,63.0020674 C46.654321,62.6185025 46.3708995,62.2794319 45.9862434,62.2446103 C45.652381,62.2143613 45.3529101,62.4236424 45.2564374,62.729826 C45.2492063,62.5384832 45.2188713,62.3524165 45.1677249,62.1740878 C45.70194,62.1292419 46.1433862,61.7089209 46.1934744,61.1586346 C46.2497354,60.5413431 45.7934744,59.9954535 45.1747795,59.9393521 C44.6335097,59.8904612 44.1472663,60.2318181 43.9959436,60.7309272 C43.7269841,60.5893547 43.4266314,60.4970248 43.1051146,60.4678309 C42.254321,60.3906255 41.4696649,60.7738387 40.9931217,61.4095961 C40.7268078,61.1836076 40.3910053,61.0335935 40.0162257,60.9994754 C39.1934744,60.924908 38.4536155,61.4301725 38.19806,62.1767258 C37.9324515,61.9442303 37.594709,61.7892919 37.215873,61.7549979 C36.2643739,61.6686475 35.4231041,62.3678927 35.3365079,63.3166926 C35.3037037,63.6789776 35.386067,64.0245553 35.5527337,64.3189558 C35.5268078,64.3143833 35.5007055,64.3105142 35.4740741,64.3084038 C35.0079365,64.2684821 34.5978836,64.6130046 34.557672,65.0778198 C34.5179894,65.5422833 34.8633157,65.9515246 35.3292769,65.9912705 C35.7954145,66.0311922 36.2056437,65.6868455 36.245679,65.2218545 C36.2525573,65.1414835 36.2470899,65.063047 36.2322751,64.9874244 C36.3393298,65.0456362 36.4534392,65.0929443 36.573545,65.12759 C36.533157,65.2603692 36.5111111,65.4010625 36.5111111,65.5466799 C36.5111111,65.7503333 36.5537919,65.9441382 36.6299824,66.1200048 C36.4617284,66.0691793 36.2835979,66.0413924 36.0991182,66.0413924 C35.0848325,66.0413924 34.2626102,66.8611062 34.2626102,67.8725145 C34.2626102,68.8381976 35.012522,69.6274865 35.9633157,69.6967779 L35.5308642,70.8353377 C35.4977072,70.8330514 35.4647266,70.8302375 35.4308642,70.8302375 C35.3433862,70.8302375 35.2582011,70.8393826 35.1747795,70.8539795 C35.243739,70.7011515 35.2830688,70.5321438 35.2830688,70.3538152 C35.2830688,69.6779601 34.7335097,69.1303118 34.0559083,69.1303118 C33.3783069,69.1303118 32.8289242,69.6779601 32.8289242,70.3538152 C32.8289242,71.0294943 33.3783069,71.5773185 34.0559083,71.5773185 C34.092769,71.5773185 34.1289242,71.5750322 34.1647266,71.5718666 C34.047619,71.7806202 33.9802469,72.0206779 33.9802469,72.2769155 C33.9802469,72.7443686 34.203351,73.1585343 34.5481481,73.4232134 L34.4606702,73.6532468 C34.7749559,73.7548976 35.0035273,74.0452532 35.0035273,74.3922379 C35.0035273,74.8231108 34.6532628,75.1723817 34.221164,75.1723817 C34.1100529,75.1723817 34.0047619,75.148288 33.9088183,75.1067835 L33.4007055,76.4447759 C33.257672,76.3791777 33.10194,76.3353869 32.9361552,76.3211418 C32.1652557,76.2553677 31.4865961,76.8251752 31.4206349,77.5938877 C31.3544974,78.3627761 31.9259259,79.0393346 32.6968254,79.1051086 C33.4679012,79.1708827 34.1463845,78.6012511 34.2123457,77.8323627 C34.2285714,77.6455925 34.2063492,77.4639223 34.1530864,77.2952664 L34.5544974,77.2952664 C34.6185185,76.8483896 35.0029982,76.5045705 35.4687831,76.5045705 C35.9347443,76.5045705 36.3190476,76.8483896 36.3832451,77.2952664 L36.7583774,77.2952664 C36.7539683,77.2410995 36.7500882,77.1865809 36.7500882,77.1313588 C36.7500882,76.8642175 36.8008818,76.6095628 36.8908289,76.3739017" id="Fill-35" fill="#FFFFFF"></path>
                            <path d="M35.3320988,63.7605796 C35.3320988,63.4471855 35.077425,63.1932343 34.762963,63.1932343 C34.4486772,63.1932343 34.1940035,63.4471855 34.1940035,63.7605796 C34.1940035,64.0741496 34.4486772,64.3281009 34.762963,64.3281009 C35.077425,64.3281009 35.3320988,64.0741496 35.3320988,63.7605796" id="Fill-36" fill="#FFFFFF"></path>
                            <path d="M32.662963,73.7012583 C32.662963,73.1184367 32.189418,72.6462351 31.6049383,72.6462351 C31.0206349,72.6462351 30.5469136,73.1184367 30.5469136,73.7012583 C30.5469136,74.2837282 31.0206349,74.7561057 31.6049383,74.7561057 C32.189418,74.7561057 32.662963,74.2837282 32.662963,73.7012583" id="Fill-37" fill="#FFFFFF"></path>
                            <path d="M29.5915344,75.4356539 C29.3005291,75.4356539 29.0647266,75.6709633 29.0647266,75.961143 C29.0647266,76.2511469 29.3005291,76.4862804 29.5915344,76.4862804 C29.8823633,76.4862804 30.1183422,76.2511469 30.1183422,75.961143 C30.1183422,75.6709633 29.8823633,75.4356539 29.5915344,75.4356539" id="Fill-38" fill="#FFFFFF"></path>
                            <path d="M31.7462081,63.5061008 C31.5059965,63.4857003 31.2945326,63.6633255 31.2738977,63.9026798 C31.2534392,64.14221 31.4313933,64.3530739 31.6716049,64.3734744 C31.9116402,64.3940508 32.1232804,64.2164256 32.143739,63.9768954 C32.1643739,63.7375411 31.9862434,63.5266772 31.7462081,63.5061008" id="Fill-39" fill="#FFFFFF"></path>
                            <path d="M28.2530864,64.7674154 C28.2530864,64.1916285 27.7850088,63.7247029 27.2075838,63.7247029 C26.6301587,63.7247029 26.1620811,64.1916285 26.1620811,64.7674154 C26.1620811,65.3432024 26.6301587,65.8099521 27.2075838,65.8099521 C27.7850088,65.8099521 28.2530864,65.3432024 28.2530864,64.7674154" id="Fill-40" fill="#FFFFFF"></path>
                            <path d="M34.4119929,62.7591957 C34.8502646,62.7989415 35.2379189,62.47693 35.2777778,62.0397258 C35.3176367,61.6025217 34.994709,61.2161429 34.5560847,61.1763971 C34.1178131,61.1366513 33.7303351,61.4586629 33.6902998,61.895867 C33.6506173,62.3328953 33.9737213,62.7196258 34.4119929,62.7591957" id="Fill-41" fill="#FFFFFF"></path>
                            <path d="M33.0820106,64.207984 C33.5920635,64.207984 34.005291,63.7959288 34.005291,63.287147 C34.005291,62.778541 33.5920635,62.3664858 33.0820106,62.3664858 C32.5717813,62.3664858 32.1585538,62.778541 32.1585538,63.287147 C32.1585538,63.7959288 32.5717813,64.207984 33.0820106,64.207984" id="Fill-42" fill="#FFFFFF"></path>
                            <path d="M30.852381,63.3981188 C31.4918871,63.4526374 32.0546737,62.9800841 32.1093474,62.342568 C32.1641975,61.7050518 31.6902998,61.1440377 31.05097,61.0893432 C30.4114638,61.0346487 29.8488536,61.507202 29.7940035,62.1447181 C29.7393298,62.7822342 30.2130511,63.3432484 30.852381,63.3981188" id="Fill-43" fill="#FFFFFF"></path>
                            <path d="M25.6171076,65.6673244 C25.3213404,65.6673244 25.0816578,65.9065028 25.0816578,66.2012551 C25.0816578,66.4961832 25.3213404,66.7353617 25.6171076,66.7353617 C25.9128748,66.7353617 26.1525573,66.4961832 26.1525573,66.2012551 C26.1525573,65.9065028 25.9128748,65.6673244 25.6171076,65.6673244" id="Fill-44" fill="#FFFFFF"></path>
                            <path d="M29.4746032,64.848314 C29.9010582,64.8847184 30.2765432,64.5695656 30.3130511,64.1443204 C30.3495591,63.7188993 30.0335097,63.3444795 29.6068783,63.308251 C29.1804233,63.2716707 28.8051146,63.5868235 28.7684303,64.0122446 C28.7319224,64.4374898 29.0479718,64.8119096 29.4746032,64.848314" id="Fill-45" fill="#FFFFFF"></path>
                            <path d="M41.4867725,65.4395772 C41.5366843,65.4321908 41.587478,65.4286735 41.6398589,65.4334219 C41.9920635,65.4654296 42.2514991,65.7760099 42.2195767,66.1272153 C42.187478,66.4784207 41.8760141,66.7372962 41.5238095,66.7054644 C41.3481481,66.6894605 41.1957672,66.6039894 41.0908289,66.4791242 L40.4467372,68.1700807 C40.9797178,68.33434 41.4458554,68.6486135 41.7992945,69.0618998 L43.2862434,65.1474629 C43.2144621,65.1595977 43.1421517,65.1699739 43.0684303,65.1754257 L43.068254,65.1754257 C43.0342152,65.1780637 42.9998236,65.18035 42.9654321,65.181581 C42.8698413,65.1843949 42.7737213,65.1835156 42.6761905,65.1747223 C42.3218695,65.1425387 41.9941799,65.0324462 41.7056437,64.8653731 L41.4867725,65.4395772" id="Fill-46" fill="#FFFFFF"></path>
                            <path d="M33.5439153,80.8725671 C33.2051146,80.8725671 32.9306878,81.1463912 32.9306878,81.4842308 C32.9306878,81.8220704 33.2051146,82.0958945 33.5439153,82.0958945 C33.882716,82.0958945 34.1574956,81.8220704 34.1574956,81.4842308 C34.1574956,81.1463912 33.882716,80.8725671 33.5439153,80.8725671" id="Fill-47" fill="#FFFFFF"></path>
                            <path d="M35.0035273,74.3922379 C35.0035273,74.3429952 34.9977072,74.2955113 34.9890653,74.2489067 C34.9888889,74.2473239 34.9883598,74.2460928 34.9880071,74.24451 C34.9848325,74.2297372 34.980776,74.2153161 34.9768959,74.2007192 C34.9694885,74.172053 34.9611993,74.1439143 34.9507937,74.1164792 C34.9477954,74.1089169 34.9444444,74.1018822 34.9412698,74.0944959 C34.9363316,74.0828887 34.9313933,74.0707539 34.9259259,74.0591467 C34.9160494,74.0385703 34.9051146,74.0190491 34.8936508,73.9995279 C34.8888889,73.9914381 34.8835979,73.9840517 34.878836,73.9761377 C34.870194,73.9629477 34.8626102,73.9487025 34.8532628,73.9360401 C34.8465608,73.9270709 34.8389771,73.9189811 34.8320988,73.9101877 C34.8089947,73.8813456 34.7837743,73.8542622 34.7571429,73.8289374 C34.7502646,73.8226062 34.7426808,73.8171544 34.7356261,73.810999 C34.7146384,73.7923572 34.6931217,73.7742429 34.6700176,73.7578874 C34.6530864,73.7461043 34.6347443,73.7362558 34.6167549,73.7257038 C34.6014109,73.7167346 34.5867725,73.7065343 34.5707231,73.6984445 C34.5354497,73.6810337 34.4987654,73.6657333 34.4606702,73.6532468 C34.3848325,73.6289772 34.3054674,73.6122699 34.221164,73.6122699 C33.7892416,73.6122699 33.4389771,73.9613649 33.4389771,74.3922379 C33.4389771,74.7223393 33.6451499,75.0028464 33.9356261,75.1169838 C33.975485,75.1326359 34.0167549,75.1461776 34.0594356,75.1551468 C34.0641975,75.156202 34.0691358,75.1565537 34.0738977,75.1576089 C34.1216931,75.166754 34.1707231,75.1723817 34.221164,75.1723817 C34.6532628,75.1723817 35.0035273,74.8231108 35.0035273,74.3922379" id="Fill-48" fill="#FFFFFF"></path>
                            <path d="M36.527866,80.9237442 C37.021164,80.4318456 37.021164,79.6339392 36.527866,79.1420406 C36.0343915,78.650142 35.2343915,78.650142 34.7409171,79.1420406 C34.2474427,79.6339392 34.2474427,80.4318456 34.7409171,80.9237442 C35.2343915,81.4158187 36.0343915,81.4158187 36.527866,80.9237442" id="Fill-49" fill="#FFFFFF"></path>
                            <path d="M36.3186949,77.0738504 C36.3059965,77.0437773 36.2950617,77.0131765 36.2795414,76.984862 C36.2611993,76.9516232 36.2388007,76.9211983 36.2167549,76.8907734 C36.2075838,76.8779351 36.2003527,76.8638658 36.1904762,76.851731 C36.1573192,76.8104024 36.1206349,76.7715359 36.0805996,76.7365385 C36.0781305,76.7344281 36.0761905,76.7321418 36.0737213,76.7303831 C36.0361552,76.697672 35.9959436,76.668654 35.9534392,76.6424499 C35.9483245,76.6392843 35.9432099,76.6361187 35.9379189,76.6331289 C35.9075838,76.6150147 35.8747795,76.6007695 35.8419753,76.5861726 C35.8301587,76.5810725 35.819224,76.5740378 35.8068783,76.5691135 C35.8005291,76.5666514 35.7941799,76.5643651 35.7876543,76.5620789 C35.7495591,76.5480096 35.7098765,76.5379852 35.6700176,76.529016 C35.6611993,76.5269056 35.6530864,76.5233882 35.6442681,76.5216296 C35.6389771,76.5205744 35.6336861,76.5202226 35.6283951,76.5191674 C35.5763668,76.5103741 35.5232804,76.5045705 35.4687831,76.5045705 C35.4142857,76.5045705 35.3611993,76.5103741 35.3093474,76.5191674 C35.3040564,76.5202226 35.2984127,76.5205744 35.2932981,76.5216296 C35.2439153,76.5311264 35.1961199,76.5450198 35.1499118,76.5620789 C35.1435626,76.5643651 35.1368607,76.5666514 35.1305115,76.5691135 C35.0850088,76.5870519 35.0412698,76.6085076 34.9994709,76.6331289 C34.9943563,76.6361187 34.989418,76.6392843 34.984127,76.6424499 C34.9800705,76.644912 34.9765432,76.6484293 34.9726631,76.6507156 C34.9347443,76.6749852 34.8977072,76.7008376 34.8638448,76.7303831 C34.861552,76.7321418 34.8592593,76.7344281 34.8571429,76.7365385 C34.8171076,76.7715359 34.7802469,76.8104024 34.7470899,76.851731 C34.7372134,76.8638658 34.7299824,76.8779351 34.7208113,76.8907734 C34.6987654,76.9213742 34.6763668,76.9516232 34.6582011,76.984862 C34.6426808,77.0131765 34.6313933,77.0437773 34.6190476,77.0738504 C34.610582,77.0940751 34.5998236,77.1128928 34.592769,77.133645 C34.5753086,77.1857015 34.5624339,77.2396925 34.5544974,77.2952664 C34.5481481,77.3383537 34.5439153,77.3821444 34.5439153,77.4268145 C34.5439153,77.9362998 34.9580247,78.3492344 35.4687831,78.3492344 C35.9795414,78.3492344 36.3936508,77.9362998 36.3936508,77.4268145 C36.3936508,77.3821444 36.389418,77.3383537 36.3832451,77.2952664 C36.3753086,77.2396925 36.3622575,77.1857015 36.3447972,77.133645 C36.3377425,77.1128928 36.3269841,77.0940751 36.3186949,77.0738504" id="Fill-50" fill="#FFFFFF"></path>
                            <path d="M48.0532628,63.9427773 C48.0793651,63.8080636 48.1179894,63.6775706 48.1675485,63.5525296 C48.1654321,63.5534089 48.1633157,63.5541123 48.1611993,63.5549917 C48.1532628,63.5578055 48.1447972,63.5595642 48.1366843,63.5625539 C48.1056437,63.5732818 48.0742504,63.5834821 48.0419753,63.5915719 C48.0373898,63.5926271 48.0333333,63.5945616 48.0285714,63.5956168 C48.0248677,63.5964962 48.021164,63.5977272 48.0174603,63.5986066 C48.0058201,63.6010687 47.9938272,63.6014204 47.9821869,63.6035308 C47.9520282,63.6093344 47.9213404,63.613907 47.8902998,63.6168967 C47.8846561,63.6174243 47.8790123,63.6190071 47.8730159,63.6193588 C47.8620811,63.620414 47.8507937,63.6209416 47.8395062,63.6212934 L47.8380952,63.6212934 C47.7890653,63.6237555 47.7393298,63.6241072 47.6887125,63.6195347 C47.6142857,63.6128518 47.5430335,63.5964962 47.4744268,63.5755681 C47.4601411,63.5711714 47.4458554,63.5678299 47.4320988,63.5629057 C47.3111111,63.5205218 47.2014109,63.4566823 47.1054674,63.3771906 C47.0936508,63.3676938 47.0814815,63.3589005 47.0703704,63.349052 C47.0671958,63.3460623 47.0638448,63.3432484 47.0608466,63.3406104 C47.0303351,63.3122959 47.0015873,63.2822227 46.9744268,63.2507426 C46.9670194,63.2421252 46.9606702,63.2328042 46.9534392,63.2240109 C46.933157,63.1986861 46.9134039,63.1731855 46.8952381,63.1459262 C46.8890653,63.1367811 46.8837743,63.1269326 46.8779541,63.1174358 C46.8603175,63.089473 46.8439153,63.0609827 46.8291005,63.0314371 C46.8273369,63.0279197 46.8250441,63.02493 46.8234568,63.0214127 L46.6155203,63.0214127 C46.5931217,63.2080071 46.4994709,63.3692766 46.3631393,63.4797208 C46.3396825,63.4988903 46.3135802,63.5141907 46.2876543,63.5301945 C46.2765432,63.5372292 46.2661376,63.5460225 46.2544974,63.5525296 L46.254321,63.5525296 C46.2430335,63.558509 46.2306878,63.5622022 46.2190476,63.5676541 C46.1906526,63.5808441 46.1626102,63.5945616 46.1324515,63.6040584 C46.1104056,63.6110931 46.0867725,63.613907 46.0640212,63.6186554 L46.0636684,63.6186554 C46.0421517,63.623052 46.0216931,63.6295591 45.9998236,63.6320212 C45.9541446,63.6369455 45.9074074,63.6376489 45.859612,63.6334281 C45.5486772,63.6051136 45.3070547,63.376663 45.2432099,63.0877144 C45.2218695,63.2757157 45.1765432,63.4549236 45.1146384,63.62569 C45.1134039,63.6285039 45.1123457,63.6314936 45.1112875,63.6344833 L45.1112875,63.6346592 C45.0717813,63.7417619 45.0236332,63.8439404 44.970194,63.9427773 L48.0532628,63.9427773" id="Fill-52" fill="#FFFFFF"></path>
                            <path d="M46.7578483,73.6105112 C47.7287478,73.6105112 48.6306878,72.8586819 48.768254,71.8861401 C48.8340388,71.4134109 48.7578483,71.0349462 48.4444444,70.7245418 C48.2007055,70.4834288 47.6920635,70.3821297 47.1451499,70.3823055 C47.131746,70.3823055 47.0231041,70.3826573 47.0231041,70.3826573 L42.4402116,70.3826573 C42.4756614,70.5639756 42.4954145,70.7510976 42.4954145,70.9426162 C42.4954145,71.3402504 42.4141093,71.7185393 42.2689594,72.0635894 C42.2680776,72.065348 42.2677249,72.0672826 42.266843,72.0690412 C42.2656085,72.072031 42.2641975,72.0748448 42.2627866,72.0778346 C42.2261023,72.1638333 42.1865961,72.2478975 42.1421517,72.3293237 C42.1024691,72.4024841 42.0585538,72.4730066 42.0128748,72.5421222 C42.012522,72.5424739 42.0123457,72.5426498 42.0121693,72.5430015 C42.0116402,72.5440567 42.0109347,72.5447602 42.0102293,72.5458154 C41.7003527,73.0130927 41.2567901,73.3825882 40.7361552,73.6082249 L44.5892416,73.6082249 L44.5892416,73.6105112 L46.7578483,73.6105112" id="Fill-53" fill="#FFFFFF"></path>
                            <path d="M36.2656085,82.061073 C35.6950617,82.061073 35.2324515,82.5223708 35.2324515,83.0911231 C35.2324515,83.6602272 35.6950617,84.1213491 36.2656085,84.1213491 C36.8361552,84.1213491 37.2985891,83.6602272 37.2985891,83.0911231 C37.2985891,82.5223708 36.8361552,82.061073 36.2656085,82.061073" id="Fill-54" fill="#FFFFFF"></path>
                            <path d="M39.7504409,85.386357 C39.4342152,85.386357 39.1779541,85.6420669 39.1779541,85.9573955 C39.1779541,86.2727242 39.4342152,86.5282582 39.7504409,86.5282582 C40.0666667,86.5282582 40.3229277,86.2727242 40.3229277,85.9573955 C40.3229277,85.6420669 40.0666667,85.386357 39.7504409,85.386357" id="Fill-55" fill="#FFFFFF"></path>
                            <path d="M50.3276896,76.1327887 C50.0079365,76.1327887 49.7486772,76.3913125 49.7486772,76.7101585 C49.7486772,77.0291803 50.0079365,77.2875282 50.3276896,77.2875282 C50.6474427,77.2875282 50.9067019,77.0291803 50.9067019,76.7101585 C50.9067019,76.3913125 50.6474427,76.1327887 50.3276896,76.1327887" id="Fill-56" fill="#FFFFFF"></path>
                            <path d="M42.0389771,80.4457391 C41.5282187,80.4457391 41.1141093,80.8586736 41.1141093,81.3681589 C41.1141093,81.8772925 41.5282187,82.2904029 42.0389771,82.2904029 C42.5499118,82.2904029 42.9638448,81.8772925 42.9638448,81.3681589 C42.9638448,80.8586736 42.5499118,80.4457391 42.0389771,80.4457391" id="Fill-57" fill="#FFFFFF"></path>
                            <path d="M41.55097,80.1525696 C41.55097,79.7215208 41.2005291,79.3724257 40.7686067,79.3724257 C40.3365079,79.3724257 39.9864198,79.7215208 39.9864198,80.1525696 C39.9864198,80.5832667 40.3365079,80.9325376 40.7686067,80.9325376 C41.2005291,80.9325376 41.55097,80.5832667 41.55097,80.1525696" id="Fill-58" fill="#FFFFFF"></path>
                            <path d="M52.7097002,71.9199064 C52.5583774,70.7801156 52.7460317,69.58862 53.2303351,68.4730987 C53.2007055,68.4753849 53.1714286,68.4789023 53.1412698,68.4789023 C53.1005291,68.4789023 53.0601411,68.476616 53.0204586,68.4727469 C53.0068783,68.4715159 52.9936508,68.4690537 52.9802469,68.4674709 C52.954321,68.4643054 52.9283951,68.4606122 52.9029982,68.4556879 C52.8871252,68.4526982 52.8716049,68.449005 52.8559083,68.4451359 C52.8335097,68.4400358 52.8112875,68.4345839 52.789418,68.4282527 C52.7728395,68.4233285 52.7566138,68.4182283 52.740388,68.4127765 C52.7202822,68.4060935 52.7001764,68.398883 52.6805996,68.390969 C52.6638448,68.3842861 52.6474427,68.377779 52.6310406,68.3705685 C52.612522,68.3623028 52.594709,68.3535095 52.5765432,68.3445403 C52.5601411,68.3362745 52.5435626,68.3281847 52.5275132,68.3192155 C52.5107584,68.3100704 52.4948854,68.2996943 52.478836,68.2896699 C52.4624339,68.2796455 52.4458554,68.2701487 52.4301587,68.2594209 C52.4261023,68.256607 52.4222222,68.2532655 52.4181658,68.2504517 C52.3813051,68.2245993 52.3465608,68.1962848 52.3126984,68.1667392 C52.310582,68.1649805 52.308642,68.1637495 52.3065256,68.1619908 C52.3056437,68.1611115 52.3047619,68.160408 52.3038801,68.1597046 C52.3015873,68.1574183 52.2994709,68.1547803 52.2970018,68.152494 C52.2100529,68.0738817 52.1342152,67.9834863 52.072134,67.8834183 C52.0698413,67.8799009 52.0671958,67.8770871 52.064903,67.8735697 C52.0634921,67.8712835 52.0622575,67.8691731 52.0608466,67.8668868 C52.0603175,67.8656557 52.0597884,67.8642488 52.0589065,67.8630177 C52.0306878,67.8153579 52.0058201,67.7654118 51.9839506,67.7138829 C51.9795414,67.7038586 51.975485,67.6943618 51.9716049,67.6841615 C51.9537919,67.6394914 51.9375661,67.593942 51.9248677,67.5469856 C51.9220459,67.5371371 51.9197531,67.5269368 51.9171076,67.5170883 C51.9167549,67.5156814 51.9164021,67.5142745 51.9160494,67.5130434 L51.9160494,67.5128675 C51.9153439,67.5102295 51.9146384,67.5072398 51.913933,67.5044259 C51.9104056,67.4891255 51.9067019,67.4738252 51.9038801,67.4583489 C51.8943563,67.4122719 51.8881834,67.3653155 51.8839506,67.3176557 C51.8834215,67.3174798 51.8830688,67.317304 51.882716,67.3169522 C51.8798942,67.2838893 51.8781305,67.2504747 51.8781305,67.2165325 C51.8781305,67.1414375 51.886067,67.0681011 51.8987654,66.9965234 C51.8996473,66.9977545 51.9005291,66.9989856 51.9014109,67.0000408 C51.9017637,66.9989856 51.9021164,66.9979304 51.9024691,66.9965234 C51.9123457,66.9416531 51.9268078,66.8887173 51.9433862,66.8366608 C51.943739,66.8359573 51.9439153,66.8352539 51.9440917,66.8343745 C51.9546737,66.8023668 51.9661376,66.7710626 51.9791887,66.7401101 C51.9835979,66.7293822 51.9876543,66.7188302 51.9925926,66.7082782 C51.994709,66.703354 51.9977072,66.6989573 52,66.6938572 C52.0356261,66.6175311 52.0777778,66.5448982 52.1275132,66.4775414 C52.1312169,66.4722654 52.135097,66.467517 52.1389771,66.4627686 C52.1638448,66.4297057 52.1904762,66.3982256 52.2185185,66.3681524 C52.2190476,66.3674489 52.2197531,66.3669213 52.2202822,66.3662179 C52.2663139,66.3166235 52.3176367,66.2721293 52.3710758,66.2302731 C52.3809524,66.2227108 52.3910053,66.2153244 52.4010582,66.207938 C52.5047619,66.1321395 52.6201058,66.0714656 52.7442681,66.0297852 C52.7447972,66.0294335 52.7455026,66.0292576 52.7460317,66.0290818 C52.8065256,66.0088571 52.8689594,65.9933809 52.9333333,65.9824771 C52.9379189,65.9815978 52.9426808,65.9812461 52.947619,65.9807185 C53.0107584,65.9706941 53.0753086,65.9647146 53.1412698,65.9647146 C53.1873016,65.9647146 53.2324515,65.9675285 53.2768959,65.9726286 C53.2929453,65.9742114 53.3084656,65.9777287 53.3243386,65.9801909 C53.352381,65.9844117 53.3804233,65.9882807 53.4077601,65.9946119 C53.4262787,65.998481 53.443739,66.0039329 53.4617284,66.0088571 C53.486067,66.0153642 53.510582,66.0218712 53.5345679,66.0297852 C53.5520282,66.0355888 53.5687831,66.0424476 53.5858907,66.0489547 C53.6026455,66.0552859 53.6197531,66.0609136 53.6361552,66.0679483 C53.6366843,66.0672448 53.6372134,66.0667172 53.6377425,66.0661896 C53.6499118,66.0714656 53.6611993,66.078852 53.6731922,66.0844797 C53.6987654,66.0966145 53.7232804,66.1096286 53.7479718,66.1231704 C53.7534392,66.1261601 53.7592593,66.1286222 53.764903,66.1317878 C53.7650794,66.1319637 53.7650794,66.1319637 53.7652557,66.1319637 C53.7835979,66.1423398 53.8017637,66.1534194 53.8195767,66.1646748 C53.8215168,66.1659059 53.8236332,66.167137 53.8255732,66.168368 C53.8398589,66.177689 53.8534392,66.1878892 53.8670194,66.1980895 C53.8786596,66.2065311 53.8906526,66.2144451 53.9021164,66.2228867 C53.9208113,66.2373077 53.9398589,66.2510253 53.957672,66.2661498 C53.9587302,66.2668533 53.9597884,66.2673809 53.9606702,66.2682602 L53.9608466,66.2682602 C53.9857143,66.2897159 54.008642,66.3131062 54.031746,66.3363206 C54.0643739,66.3688559 54.094709,66.402974 54.1234568,66.4386749 C54.137037,66.4559098 54.1518519,66.4717378 54.1645503,66.4895003 C54.2164021,66.5612538 54.257672,66.6402179 54.2938272,66.7221717 C54.3049383,66.7082782 54.3153439,66.6938572 54.3266314,66.6801396 C54.4070547,66.5816543 54.4899471,66.485983 54.5740741,66.3920702 C54.4707231,66.3206684 54.3717813,66.2432872 54.2837743,66.153947 C54.2837743,66.1537711 54.2839506,66.1537711 54.2839506,66.1537711 C54.2613757,66.1309085 54.2412698,66.1059354 54.2197531,66.0821935 C54.2195767,66.0818417 54.219224,66.08149 54.2188713,66.0811383 C54.2100529,66.0711139 54.2007055,66.0614412 54.1920635,66.0512409 C54.1918871,66.0510651 54.1917108,66.0507133 54.1915344,66.0505375 C54.164903,66.0194091 54.1409171,65.9863462 54.1164021,65.9538109 C54.1015873,65.9342897 54.0855379,65.9158237 54.0714286,65.8959508 C54.0698413,65.8936646 54.0680776,65.89173 54.0666667,65.8894438 C54.0664903,65.8892679 54.0664903,65.8889162 54.0663139,65.8887403 C54.0663139,65.8887403 54.0663139,65.8887403 54.0663139,65.8885644 C54.029806,65.8358045 53.9964727,65.7804065 53.9650794,65.7241292 C53.961552,65.7176222 53.9569665,65.7118186 53.9536155,65.7053115 C53.9500882,65.6989803 53.9470899,65.6926491 53.9435626,65.6864938 C53.9416226,65.6815695 53.9393298,65.6766453 53.9368607,65.6720727 C53.9095238,65.6191369 53.8839506,65.5651459 53.8611993,65.509748 C53.8592593,65.504472 53.8567901,65.4993718 53.8546737,65.4940958 C53.8500882,65.4817852 53.8460317,65.4692987 53.8412698,65.4568121 C53.8209877,65.4026453 53.8029982,65.3474232 53.7873016,65.2911459 C53.7834215,65.2767248 53.7793651,65.2626555 53.775485,65.2480586 C53.7742504,65.2434861 53.7733686,65.2387377 53.7724868,65.2339893 C53.757672,65.1741947 53.7462081,65.1128172 53.7372134,65.0507364 C53.7347443,65.032798 53.7320988,65.0146837 53.729806,64.9967453 C53.7296296,64.9948108 53.7294533,64.9928763 53.7291005,64.9911176 C53.7209877,64.9176054 53.7149912,64.8432139 53.7149912,64.7674154 C53.7149912,64.7582704 53.7164021,64.749477 53.7164021,64.740332 C53.6118166,64.7677671 53.5028219,64.7839469 53.3895944,64.7839469 C53.3375661,64.7839469 53.2869489,64.7790226 53.2365079,64.7728673 C53.2313933,64.7721638 53.2261023,64.7716362 53.2209877,64.7707569 C53.177425,64.7644257 53.1345679,64.7565117 53.092769,64.7459597 C53.089418,64.7452562 53.0862434,64.7449045 53.0828924,64.7440252 C53.0813051,64.7434976 53.0795414,64.7427941 53.0777778,64.7424424 C53.0359788,64.7315386 52.994709,64.7194039 52.9544974,64.7048069 C52.9495591,64.7028724 52.9446208,64.7011137 52.9396825,64.6991792 C52.8985891,64.683703 52.8583774,64.6668198 52.8194004,64.6472986 C52.8188713,64.6471227 52.8185185,64.6471227 52.8181658,64.6469469 L52.8181658,64.646771 C52.7800705,64.6276015 52.7428571,64.6064976 52.7070547,64.5838108 C52.6888889,64.5723795 52.6719577,64.5591895 52.6544974,64.5468788 C52.6375661,64.5349199 52.6199295,64.5236644 52.6037037,64.5108262 C52.6035273,64.5106503 52.6031746,64.5104744 52.6029982,64.5104744 C52.5970018,64.505726 52.5904762,64.5016811 52.5844797,64.4969327 C52.5698413,64.4851497 52.5564374,64.4719597 52.5426808,64.4592973 C52.5354497,64.4526144 52.527866,64.446459 52.5206349,64.4397761 L52.5206349,64.4396002 C52.5130511,64.4325656 52.5058201,64.425355 52.4984127,64.4181445 C52.4871252,64.4072408 52.4756614,64.3968647 52.4647266,64.3856092 L52.4647266,64.3854333 C52.4610229,64.3815643 52.4574956,64.3775194 52.4539683,64.3734744 L51.5684303,66.7044092 L45.6213404,66.7044092 L45.2712522,67.6264773 L47.4081129,67.6264773 C48.5994709,67.6277084 49.877425,67.9548201 50.6287478,68.7787547 C51.3797178,69.6014582 51.6920635,70.6839166 51.521164,71.8982749 C51.3537919,73.091705 50.7310406,74.17856 49.7677249,75.0295781 C48.8051146,75.8802444 47.6169312,76.3543805 46.4223986,76.3644049 L46.3830688,76.366867 L39.0308642,76.3644049 L39.99806,73.8180337 C39.8619048,73.8375549 39.7234568,73.8500414 39.5820106,73.8500414 C39.5493827,73.8500414 39.517284,73.8481069 39.4850088,73.8470517 C39.0924162,73.8340375 38.7220459,73.7394214 38.3837743,73.5862416 L37.3216931,76.3739017 L36.891358,76.3739017 C36.8738977,76.4192753 36.8569665,76.4650006 36.8426808,76.5117811 C36.8414462,76.515826 36.8405644,76.519695 36.8393298,76.5239158 C36.8234568,76.5768517 36.8095238,76.6311944 36.7977072,76.6862406 C36.7970018,76.689758 36.7961199,76.6934512 36.7952381,76.6971444 C36.7828924,76.7558838 36.7730159,76.8156784 36.7657848,76.8761765 C36.7656085,76.8774075 36.7656085,76.8786386 36.7654321,76.8798697 C36.7652557,76.8818042 36.7650794,76.8839146 36.764903,76.8858491 C36.7555556,76.966396 36.7500882,77.0481739 36.7500882,77.1313588 C36.7500882,78.3089609 37.7075838,79.2637402 38.8887125,79.2637402 C40.017284,79.2637402 40.9395062,78.3916182 41.0194004,77.286473 L41.8276896,77.2868248 C41.4765432,77.5952946 41.2537919,78.0455129 41.2537919,78.5488429 C41.2537919,79.4784732 42.0093474,80.2318854 42.9414462,80.2318854 C43.873545,80.2318854 44.6292769,79.4784732 44.6292769,78.5488429 C44.6292769,78.0460405 44.4067019,77.5956464 44.0560847,77.2875282 L44.961552,77.2877041 C45.3419753,78.0713653 46.1446208,78.61321 47.0763668,78.61321 C47.5848325,78.61321 48.054321,78.4505335 48.4388007,78.1768852 C48.4333333,78.2182138 48.4294533,78.2598942 48.4294533,78.3026297 C48.4294533,78.8189738 48.8492063,79.237712 49.3673721,79.237712 C49.8851852,79.237712 50.3051146,78.8189738 50.3051146,78.3026297 C50.3051146,77.7859339 49.8851852,77.3673716 49.3673721,77.3673716 C49.2878307,77.3673716 49.2107584,77.3782754 49.137037,77.3969172 C49.2977072,77.1056823 49.3984127,76.7769878 49.4220459,76.4270134 C49.7093474,76.2527297 49.9857143,76.0540005 50.2513228,75.8302983 C50.3114638,75.7796488 50.3689594,75.7277681 50.4259259,75.6757117 C50.6246914,75.8740891 50.8992945,75.9968439 51.2028219,75.9968439 C51.5619048,75.9968439 51.8797178,75.8243189 52.0802469,75.5585846 C52.0730159,75.4915794 52.0687831,75.4233432 52.0687831,75.3542277 C52.0687831,75.285288 52.0738977,75.2175794 52.0813051,75.1503984 C52.0823633,75.1419568 52.0832451,75.1333393 52.084127,75.1250736 C52.0846561,75.1212045 52.0855379,75.1176872 52.086067,75.1138182 C52.091358,75.0726654 52.0975309,75.0316885 52.1054674,74.9915909 C52.1084656,74.9768181 52.1112875,74.9622212 52.1144621,74.9476243 C52.115873,74.9411172 52.1179894,74.934786 52.1194004,74.9281031 C52.126455,74.8983817 52.1338624,74.8686602 52.142328,74.8392905 C52.1425044,74.8384112 52.1426808,74.8377077 52.1430335,74.8370043 C52.1483245,74.8185383 52.1530864,74.8000723 52.1587302,74.781958 C52.1617284,74.7733406 52.1652557,74.7650749 52.168254,74.7564574 C52.1765432,74.7318361 52.1855379,74.7079182 52.1948854,74.6838245 C52.2014109,74.6664137 52.2068783,74.6488271 52.213933,74.631768 C52.2188713,74.6201609 52.2243386,74.6089054 52.229806,74.5976499 C52.2380952,74.579184 52.2472663,74.5612456 52.2560847,74.5429555 C52.2650794,74.523786 52.2737213,74.5042648 52.2837743,74.485623 C52.2881834,74.4773572 52.2929453,74.4692674 52.2975309,74.4611775 C52.3042328,74.448691 52.3114638,74.4362045 52.3185185,74.423718 C52.3202822,74.42108 52.3216931,74.4182661 52.3234568,74.4154522 C52.3366843,74.3929413 52.3500882,74.3702545 52.3643739,74.3480954 C52.3679012,74.3428194 52.3714286,74.3377192 52.3749559,74.3324432 C52.3832451,74.3197809 52.391358,74.3074702 52.3998236,74.2951595 C52.4047619,74.2883007 52.4091711,74.2810902 52.413933,74.2740556 C52.4266314,74.2564689 52.4396825,74.2395857 52.4525573,74.2227025 C52.4539683,74.2209439 52.4555556,74.2193611 52.4567901,74.2176024 C52.4641975,74.2082815 52.4707231,74.1979054 52.4783069,74.1884086 C52.4781305,74.1882327 52.4779541,74.1880568 52.4777778,74.187881 C52.4793651,74.1857706 52.4816578,74.183836 52.4832451,74.1815498 C52.4992945,74.1618527 52.5176367,74.1444419 52.5343915,74.1254484 C52.5343915,74.1254484 52.5345679,74.1254484 52.5345679,74.1252725 C52.5536155,74.103465 52.5731922,74.0818335 52.5931217,74.0607295 C52.607231,74.0459567 52.6195767,74.0296011 52.6342152,74.0153559 C52.6386243,74.011311 52.6432099,74.0076178 52.6474427,74.0035729 C52.6574956,73.9939002 52.6687831,73.9858103 52.6790123,73.9764894 C52.7132275,73.9451852 52.7481481,73.9149361 52.7846561,73.886094 C52.7899471,73.8816974 52.7948854,73.876949 52.8003527,73.8727282 C52.8049383,73.869035 52.8097002,73.8656935 52.8142857,73.8621762 L52.8144621,73.8621762 C52.8215168,73.8569002 52.8285714,73.8514483 52.8356261,73.8461723 L52.8358025,73.8461723 C52.8366843,73.8456447 52.8373898,73.8449413 52.8382716,73.8442378 C52.8396825,73.8433585 52.8416226,73.8423033 52.8432099,73.8410722 C52.8433862,73.8410722 52.8435626,73.8408963 52.8435626,73.8408963 C52.8747795,73.8182096 52.9075838,73.7976332 52.9405644,73.7770568 C52.9590829,73.7650979 52.9768959,73.751732 52.9961199,73.7404766 C53.0056437,73.734673 53.0149912,73.7286935 53.024515,73.7232416 C53.0599647,73.7031929 53.0975309,73.6873649 53.1342152,73.6694265 C53.1460317,73.6637988 53.1573192,73.6578193 53.1691358,73.6525433 C53.1887125,73.6435741 53.207231,73.6324945 53.2271605,73.6240529 C52.9670194,73.1012018 52.7904762,72.5280528 52.7097002,71.9199064" id="Fill-59" fill="#FFFFFF"></path>
                            <path d="M38.0994709,84.5546842 C37.6744268,84.5546842 37.329806,84.8983274 37.329806,85.3221657 C37.329806,85.7458281 37.6744268,86.0892954 38.0994709,86.0892954 C38.5243386,86.0892954 38.8691358,85.7458281 38.8691358,85.3221657 C38.8691358,84.8983274 38.5243386,84.5546842 38.0994709,84.5546842" id="Fill-60" fill="#FFFFFF"></path>
                            <path d="M38.6231041,81.5522911 C39.237037,81.5522911 39.7345679,81.0559958 39.7345679,80.4441563 C39.7345679,79.8319649 39.237037,79.3360214 38.6231041,79.3360214 C38.0095238,79.3360214 37.5118166,79.8319649 37.5118166,80.4441563 C37.5118166,81.0559958 38.0095238,81.5522911 38.6231041,81.5522911" id="Fill-61" fill="#FFFFFF"></path>
                            <path d="M40.3061728,81.2944708 C39.8065256,81.2944708 39.3888889,81.6402244 39.2781305,82.104512 C39.1410935,81.8799305 38.8955908,81.7281577 38.6126984,81.7281577 C38.1814815,81.7281577 37.8319224,82.0769009 37.8319224,82.5068946 C37.8319224,82.9368882 38.1814815,83.2854556 38.6126984,83.2854556 C38.9470899,83.2854556 39.2299824,83.0751193 39.3412698,82.7805429 C39.5068783,83.1481039 39.8761905,83.4041655 40.3061728,83.4041655 C40.8904762,83.4041655 41.3641975,82.9319639 41.3641975,82.3493182 C41.3641975,81.7664966 40.8904762,81.2944708 40.3061728,81.2944708" id="Fill-62" fill="#FFFFFF"></path>
                            <path d="M39.2671958,84.9145071 C39.672134,84.9145071 40.0005291,84.5870437 40.0005291,84.1830783 C40.0005291,83.7794646 39.672134,83.4518253 39.2671958,83.4518253 C38.8622575,83.4518253 38.5338624,83.7794646 38.5338624,84.1830783 C38.5338624,84.5870437 38.8622575,84.9145071 39.2671958,84.9145071" id="Fill-63" fill="#FFFFFF"></path>
                            <path d="M53.2599647,79.8375927 C53.7054674,79.8375927 54.0664903,79.4775939 54.0664903,79.0333551 C54.0664903,78.5892922 53.7054674,78.2292934 53.2599647,78.2292934 C52.8146384,78.2292934 52.4534392,78.5892922 52.4534392,79.0333551 C52.4534392,79.4775939 52.8146384,79.8375927 53.2599647,79.8375927" id="Fill-64" fill="#FFFFFF"></path>
                            <path d="M51.447619,79.9091703 C51.1209877,80.2345234 51.1209877,80.7626505 51.447619,81.0883553 C51.7740741,81.4137083 52.3035273,81.4137083 52.6301587,81.0883553 C52.9567901,80.7626505 52.9567901,80.2345234 52.6301587,79.9091703 C52.3035273,79.5834655 51.7740741,79.5834655 51.447619,79.9091703" id="Fill-65" fill="#FFFFFF"></path>
                            <path d="M51.4460317,77.7915617 C51.0499118,77.7915617 50.7289242,78.1116387 50.7289242,78.5066349 C50.7289242,78.9016311 51.0499118,79.221884 51.4460317,79.221884 C51.8419753,79.221884 52.1631393,78.9016311 52.1631393,78.5066349 C52.1631393,78.1116387 51.8419753,77.7915617 51.4460317,77.7915617" id="Fill-66" fill="#FFFFFF"></path>
                            <path d="M51.2550265,81.8542539 C51.2550265,82.1075017 51.4608466,82.3127379 51.7148148,82.3127379 C51.9686067,82.3127379 52.1742504,82.1075017 52.1742504,81.8542539 C52.1742504,81.601182 51.9686067,81.3961217 51.7148148,81.3961217 C51.4608466,81.3961217 51.2550265,81.601182 51.2550265,81.8542539" id="Fill-67" fill="#FFFFFF"></path>
                            <path d="M52.2917108,62.5068273 C52.7917108,62.5068273 53.1970018,62.1025102 53.1970018,61.6039286 C53.1970018,61.105347 52.7917108,60.7012058 52.2917108,60.7012058 C51.7917108,60.7012058 51.3864198,61.105347 51.3864198,61.6039286 C51.3864198,62.1025102 51.7917108,62.5068273 52.2917108,62.5068273" id="Fill-68" fill="#FFFFFF"></path>
                            <path d="M59.0765432,70.3204005 C59.3696649,70.3204005 59.6074074,70.5576444 59.6074074,70.8499346 C59.6074074,71.1422247 59.3696649,71.3792928 59.0765432,71.3792928 C58.7834215,71.3792928 58.545679,71.1422247 58.545679,70.8499346 C58.545679,70.5576444 58.7834215,70.3204005 59.0765432,70.3204005 Z M56.4954145,68.2571346 C55.7580247,69.1589781 55.4141093,70.2678164 55.5511464,71.3005046 C55.6546737,72.0804726 56.0398589,72.7470066 56.6358025,73.177352 C57.1299824,73.5341851 57.7507937,73.7228899 58.4315697,73.7230658 C59.603351,73.7230658 60.8162257,73.1609964 61.6500882,72.2438526 C61.4536155,72.1560952 61.2675485,72.0454751 61.0957672,71.9130476 C61.0918871,71.909882 61.0873016,71.9074199 61.0834215,71.9040785 C61.0679012,71.8921195 61.052381,71.8798089 61.037037,71.8674982 C61.029806,71.8616946 61.0231041,71.8551876 61.015873,71.849384 C60.992769,71.8298628 60.9700176,71.8099899 60.9472663,71.7899411 C60.9373898,71.780796 60.9268078,71.7725303 60.9167549,71.7632094 C60.9164021,71.7628576 60.9160494,71.7626818 60.915873,71.76233 C60.907231,71.7544161 60.8987654,71.7454469 60.8901235,71.7371811 C60.8760141,71.7236394 60.8610229,71.7111529 60.8470899,71.6974353 C60.8444444,71.695149 60.8417989,71.6930386 60.8391534,71.6904006 C60.8248677,71.6763313 60.8118166,71.6610309 60.7978836,71.646434 C60.7463845,71.5931465 60.6968254,71.5377485 60.6495591,71.4797126 C60.6493827,71.4795367 60.6493827,71.4793608 60.6492063,71.4793608 C60.6373898,71.4649398 60.6262787,71.4499911 60.6148148,71.4353942 C60.6098765,71.429063 60.6058201,71.4222042 60.6007055,71.4156971 C60.5783069,71.3866792 60.5553792,71.3581888 60.5340388,71.3279398 C60.5336861,71.3274122 60.5333333,71.3268846 60.5329806,71.326357 C60.5155203,71.3015598 60.4996473,71.2755315 60.4830688,71.2500309 C60.4813051,71.247217 60.4791887,71.244579 60.4772487,71.241941 C60.4763668,71.24071 60.475485,71.2394789 60.4746032,71.238072 C60.4684303,71.2285752 60.4626102,71.2192543 60.4564374,71.2099333 C60.4550265,71.2076471 60.4537919,71.2053608 60.4525573,71.2030745 C60.4460317,71.1928743 60.4389771,71.1833775 60.4326279,71.1730014 C60.4299824,71.1684288 60.4271605,71.1636804 60.4243386,71.1591079 C60.4181658,71.1487318 60.4132275,71.1374763 60.407231,71.1271002 C60.3645503,71.0555225 60.3238095,70.9827138 60.2881834,70.9053325 C60.1255732,70.5550064 60.0453263,70.187973 60.037037,69.8251604 C59.9961199,69.8221707 59.9555556,69.8168947 59.9156966,69.8100359 C59.9045855,69.8079255 59.8938272,69.8054634 59.882716,69.8031771 L59.8825397,69.8031771 C59.8691358,69.8005391 59.8559083,69.7973735 59.8425044,69.7945596 C59.8276896,69.7910423 59.8130511,69.7868215 59.7982363,69.7829525 C59.7911817,69.7810179 59.7837743,69.779611 59.7763668,69.7776765 C59.772134,69.7764454 59.7679012,69.7752143 59.7634921,69.7739833 C59.7594356,69.7725763 59.7552028,69.7711694 59.7511464,69.7697625 C59.7474427,69.7688831 59.7439153,69.7673003 59.7402116,69.7660693 C59.7202822,69.7597381 59.7003527,69.7534069 59.680776,69.7461964 C59.6714286,69.7425032 59.6622575,69.7391617 59.6529101,69.7352926 C59.6455026,69.7324788 59.6386243,69.7291373 59.6313933,69.7261476 C59.5853616,69.7068023 59.5410935,69.6849948 59.4978836,69.6605494 C59.4971781,69.6600218 59.4961199,69.65967 59.4952381,69.6591424 C59.4798942,69.650525 59.4647266,69.6417316 59.4497354,69.6324107 C59.4333333,69.6222105 59.4174603,69.6111309 59.4015873,69.6002272 C59.3867725,69.589851 59.3716049,69.5796508 59.3569665,69.568747 C59.3474427,69.5617124 59.3382716,69.5537984 59.3291005,69.5462361 C59.3165785,69.5362117 59.305291,69.5247804 59.2929453,69.5142284 C59.2783069,69.501566 59.2627866,69.4901347 59.2488536,69.476593 C59.2460317,69.473955 59.2430335,69.4709653 59.2400353,69.4683273 C59.2389771,69.4670962 59.2380952,69.4658651 59.2368607,69.4646341 C59.2044092,69.4333298 59.1737213,69.4006187 59.1446208,69.3661488 C59.1426808,69.3635108 59.1405644,69.3610487 59.1382716,69.3585866 C59.1156966,69.3309755 59.0941799,69.3024851 59.0738977,69.2729396 C59.0696649,69.2673118 59.0654321,69.2613324 59.061552,69.2553529 L59.0613757,69.2553529 C59.0513228,69.2404043 59.0421517,69.2247521 59.0329806,69.2091 C59.0171076,69.1830718 59.0021164,69.1561642 58.9881834,69.1289049 C58.9825397,69.1176494 58.9763668,69.1065699 58.9708995,69.0951385 C58.9659612,69.0849383 58.9611993,69.074738 58.9567901,69.0643619 L58.9566138,69.0643619 C58.9462081,69.0409716 58.9365079,69.0170538 58.9275132,68.9927842 L58.9273369,68.9927842 C58.9255732,68.98786 58.9239859,68.9827598 58.9222222,68.9778356 C58.9097002,68.9433657 58.8989418,68.9085442 58.889418,68.8728433 C58.8887125,68.8693259 58.8878307,68.8659845 58.8869489,68.8624671 L58.8869489,68.8622913 C58.8797178,68.8338009 58.8726631,68.8049588 58.8673721,68.7757649 L58.8673721,68.7754132 C58.8606702,68.7384812 58.8555556,68.7011975 58.8518519,68.6633862 C58.8485009,68.6250473 58.8462081,68.5863567 58.8462081,68.5469626 C58.8462081,68.4956096 58.8504409,68.4453118 58.856261,68.3957174 L58.856261,68.3955415 C58.856261,68.3950139 58.856261,68.3943105 58.8564374,68.393607 C58.8569665,68.3886828 58.8578483,68.3839344 58.8585538,68.3788342 C58.859612,68.3707444 58.8608466,68.3626545 58.8620811,68.3549164 C58.8679012,68.3155223 58.8756614,68.2766558 58.8851852,68.2384928 C58.8876543,68.2282925 58.8897707,68.2177405 58.8925926,68.2075402 C58.9059965,68.159177 58.9216931,68.1120447 58.9402116,68.0661436 C58.9407407,68.0649125 58.9414462,68.0635056 58.9419753,68.0622745 C58.942328,68.061571 58.9425044,68.0606917 58.9428571,68.0599882 C58.9573192,68.0248149 58.9749559,67.9915762 58.9922399,67.9581615 C58.9971781,67.9490165 59.0008818,67.9393438 59.0056437,67.9303746 C59.0074074,67.9273849 59.008642,67.9238676 59.0104056,67.9208778 C59.0119929,67.9184157 59.0134039,67.9159536 59.0149912,67.9134914 C59.0388007,67.8718111 59.0650794,67.8320652 59.0931217,67.7933746 C59.0952381,67.7905607 59.0975309,67.787571 59.0998236,67.7847572 C59.1014109,67.782295 59.103351,67.7798329 59.105291,67.7773708 L59.105291,67.7771949 C59.1271605,67.7483528 59.1511464,67.7214452 59.1751323,67.6945376 C59.1839506,67.6846891 59.1915344,67.6737854 59.2007055,67.6644645 C59.2008818,67.6641127 59.2012346,67.6639369 59.2015873,67.6635851 C59.2248677,67.6391397 59.2506173,67.6171564 59.2760141,67.5946455 C59.3294533,67.5466339 59.3857143,67.5016121 59.4467372,67.4629214 C59.470194,67.4481486 59.4959436,67.4367173 59.5202822,67.4233515 C59.545679,67.4096339 59.570194,67.3946852 59.5962963,67.3821987 C59.5977072,67.3814952 59.5989418,67.3806159 59.6,67.3802642 C59.6012346,67.3797366 59.6022928,67.379209 59.6035273,67.3786814 C59.6051146,67.377802 59.6067019,67.3774503 59.6081129,67.3769227 L59.6081129,67.3767468 C59.659612,67.3537083 59.7126984,67.3334837 59.7677249,67.317304 C59.7703704,67.3164246 59.7733686,67.315897 59.7761905,67.3150177 L59.7763668,67.3150177 C59.8081129,67.3058726 59.8412698,67.300069 59.8740741,67.2933861 C59.8915344,67.2900447 59.9084656,67.2851204 59.9261023,67.2821307 L59.9261023,67.2819548 L59.9262787,67.2819548 C59.9303351,67.2814272 59.9342152,67.2808996 59.9380952,67.2801961 C59.9516755,67.2780857 59.9654321,67.2770305 59.9791887,67.2752719 C59.9970018,67.2729856 60.0148148,67.2703476 60.033157,67.2687648 C60.0659612,67.2655992 60.0992945,67.2640164 60.1329806,67.2640164 C60.4920635,67.2640164 60.8164021,67.4108649 61.0497354,67.6475813 C61.1079365,67.600449 61.1686067,67.5561307 61.2310406,67.513571 L61.2312169,67.513571 C61.3530864,67.4296827 61.4821869,67.3535325 61.621164,67.2895171 C61.6888889,67.2582128 61.7574956,67.2323604 61.8261023,67.2072115 C61.7843034,67.1732693 61.7449735,67.1370408 61.7010582,67.105209 C61.4557319,66.9282872 61.1821869,66.7925183 60.8888889,66.6984297 C60.5910053,66.7209406 60.2954145,66.6683565 60.0273369,66.5496466 C59.9800705,66.5475362 59.933157,66.5445465 59.8853616,66.5445465 C58.627866,66.5445465 57.3606702,67.1847006 56.4954145,68.2571346 L56.4954145,68.2571346 Z" id="Fill-69" fill="#FFFFFF"></path>
                            <path d="M50.373545,61.8059992 C50.813933,61.8059992 51.1708995,61.4500454 51.1708995,61.0109067 C51.1708995,60.571768 50.813933,60.2158142 50.373545,60.2158142 C49.933157,60.2158142 49.5761905,60.571768 49.5761905,61.0109067 C49.5761905,61.4500454 49.933157,61.8059992 50.373545,61.8059992" id="Fill-70" fill="#FFFFFF"></path>
                            <path d="M57.7267267,62.250604 C57.9134484,62.250604 58.0645646,62.0998704 58.0645646,61.9138278 C58.0645646,61.7275788 57.9134484,61.5768452 57.7267267,61.5768452 C57.5402121,61.5768452 57.3888889,61.7275788 57.3888889,61.9138278 C57.3888889,62.0998704 57.5402121,62.250604 57.7267267,62.250604" id="Fill-71" fill="#FFFFFF"></path>
                            <path d="M53.9756614,61.5312957 C54.2730159,61.5312957 54.5142857,61.2910621 54.5142857,60.9943753 C54.5142857,60.6975126 54.2730159,60.4571031 53.9756614,60.4571031 C53.6781305,60.4571031 53.437037,60.6975126 53.437037,60.9943753 C53.437037,61.2910621 53.6781305,61.5312957 53.9756614,61.5312957" id="Fill-72" fill="#FFFFFF"></path>
                            <path d="M51.1382716,79.9255259 C51.1382716,79.444531 50.7474427,79.0548108 50.2652557,79.0548108 C49.7830688,79.0548108 49.3922399,79.444531 49.3922399,79.9255259 C49.3922399,80.4061691 49.7830688,80.7958893 50.2652557,80.7958893 C50.7474427,80.7958893 51.1382716,80.4061691 51.1382716,79.9255259" id="Fill-73" fill="#FFFFFF"></path>
                            <path d="M52.6176367,63.9427773 L52.4539683,64.3734744 C52.457672,64.3775194 52.4610229,64.3815643 52.4647266,64.3854333 C52.482716,64.4042511 52.5015873,64.4220136 52.5206349,64.4397761 C52.5416226,64.4591214 52.5622575,64.4786426 52.5844797,64.4969327 C52.5906526,64.5016811 52.5973545,64.5060778 52.6037037,64.5108262 C52.670194,64.5630585 52.7419753,64.6084321 52.8181658,64.646771 C52.8185185,64.6471227 52.8188713,64.6471227 52.8194004,64.6474745 C52.8583774,64.6669956 52.8984127,64.683703 52.9396825,64.6991792 C52.9446208,64.7011137 52.9495591,64.7028724 52.9544974,64.7048069 C53.0054674,64.7232729 53.0580247,64.7378698 53.1112875,64.7501805 C53.1326279,64.7551048 53.1534392,64.7605566 53.1751323,64.7642498 C53.1952381,64.7677671 53.2160494,64.7702293 53.2365079,64.7728673 C53.2869489,64.7790226 53.3375661,64.7839469 53.3895944,64.7839469 C53.5028219,64.7839469 53.6118166,64.7677671 53.7164021,64.740332 C53.7164021,64.749477 53.7149912,64.7582704 53.7149912,64.7674154 C53.7149912,64.8287928 53.7188713,64.889115 53.7243386,64.9490855 C53.7257496,64.9650894 53.7280423,64.9807415 53.729806,64.9965695 C53.7308642,65.0048352 53.7320988,65.0129251 53.733157,65.0208391 C53.7377425,65.0563641 53.7428571,65.0911857 53.7492063,65.1256555 C53.7522046,65.1418352 53.7555556,65.1578391 53.7587302,65.1740188 C53.7617284,65.188264 53.7650794,65.2025092 53.7684303,65.2167543 C53.7749559,65.2436619 53.7816578,65.2705695 53.7890653,65.2973012 C53.8035273,65.3488301 53.8201058,65.3991279 53.838448,65.4487223 C53.8446208,65.4654296 53.8502646,65.4823128 53.8566138,65.4986684 C53.8599647,65.5067582 53.8633157,65.5146722 53.866843,65.5227621 C53.8795414,65.553187 53.8931217,65.5832602 53.907231,65.6129816 C53.9134039,65.6259957 53.9195767,65.6391857 53.9262787,65.652024 C53.9449735,65.6893077 53.9645503,65.7260638 53.9857143,65.7619405 C53.9881834,65.7665131 53.9910053,65.7707339 53.9936508,65.7753064 C54.0329806,65.8414322 54.0761905,65.90492 54.1223986,65.9659457 C54.1261023,65.9706941 54.129806,65.9754425 54.1335097,65.9803667 C54.1804233,66.0408648 54.2301587,66.0990766 54.2839506,66.1537711 C54.2839506,66.1537711 54.2837743,66.1537711 54.2837743,66.153947 C54.3717813,66.2432872 54.4707231,66.3206684 54.5740741,66.3920702 C55.8719577,64.9489097 57.6001764,64.0769635 59.3204586,63.8617029 C59.4070547,63.745631 59.5082892,63.6390559 59.6232804,63.545319 C59.6289242,63.5405706 59.6345679,63.536174 59.6402116,63.5316014 C59.6504409,63.5235116 59.6610229,63.5161252 59.6714286,63.5082112 C59.6881834,63.4953729 59.7045855,63.4825347 59.7218695,63.4703999 C59.7218695,63.4703999 59.7218695,63.4703999 59.7218695,63.470224 C59.7243386,63.4686412 59.726455,63.4668826 59.7287478,63.4651239 C59.7497354,63.4503511 59.7716049,63.4364577 59.7934744,63.4225642 C59.7996473,63.4185193 59.8058201,63.4150019 59.8119929,63.410957 C59.8119929,63.4107811 59.8121693,63.4107811 59.8121693,63.4107811 C59.8273369,63.4014602 59.8419753,63.3914358 59.8574956,63.3822908 C59.9045855,63.3552073 59.9529101,63.3291791 60.0035273,63.3061406 C60.329806,63.155423 60.6781305,63.1128633 61.0091711,63.1608748 C61.0059965,63.1378363 61.0037037,63.1147978 61.0015873,63.0915834 L61.0015873,63.0912317 C60.9975309,63.0502548 60.994709,63.009102 60.994709,62.9670699 C60.994709,62.9586283 60.9957672,62.9505385 60.9959436,62.9420969 C60.584127,62.8944371 60.1650794,62.8858196 59.7442681,62.909034 C59.8541446,62.7901482 59.9229277,62.6325718 59.9229277,62.4582881 C59.9229277,62.0898478 59.6232804,61.7914023 59.2539683,61.7914023 C58.8846561,61.7914023 58.5851852,62.0898478 58.5851852,62.4582881 C58.5851852,62.4878337 58.5901235,62.5156206 58.5936508,62.544111 C58.4553792,62.4686642 58.296649,62.4257528 58.1276896,62.4257528 C57.5904762,62.4257528 57.1548501,62.8597914 57.1548501,63.3956566 C57.1548501,63.4046258 57.1559083,63.4130674 57.1560847,63.4218607 C57.1118166,63.3742009 57.0652557,63.3288273 57.0165785,63.2857401 L57.0164021,63.2855642 C56.9677249,63.2424769 56.9169312,63.2018517 56.8640212,63.1636887 C57.0453263,62.9271482 57.154321,62.632396 57.154321,62.3116154 C57.154321,61.5356924 56.5234568,60.9066179 55.7453263,60.9066179 C54.9673721,60.9066179 54.3365079,61.5356924 54.3365079,62.3116154 C54.3365079,62.4556501 54.3583774,62.5942329 54.3985891,62.7250776 C54.1643739,62.4254011 53.8001764,62.231772 53.3895944,62.231772 C52.8557319,62.231772 52.4,62.5583562 52.2084656,63.0214127 L51.9213404,63.0214127 C51.5229277,62.5068273 50.9005291,62.1740878 50.1978836,62.1740878 C49.6895944,62.1740878 49.2231041,62.3485474 48.8520282,62.6390789 C48.8514991,62.6438273 48.8518519,62.6483998 48.8513228,62.6534999 C48.8373898,62.8079107 48.7902998,62.9510661 48.7188713,63.0778658 C48.7155203,63.0840212 48.7116402,63.0898248 48.7081129,63.0959801 C48.7010582,63.1081149 48.6924162,63.1190186 48.6848325,63.1306258 C48.6700176,63.1536643 48.6557319,63.1770545 48.6391534,63.198862 C48.6361552,63.2029069 48.6333333,63.206776 48.6303351,63.2108209 C48.5793651,63.2760674 48.5201058,63.333224 48.4559083,63.3847529 C48.4460317,63.3928428 48.4372134,63.401812 48.4269841,63.4093742 C48.4257496,63.4104294 48.424515,63.4113087 48.4232804,63.4121881 C48.3758377,63.4475372 48.3243386,63.4772587 48.2714286,63.5043421 C48.2375661,63.5217529 48.203351,63.5389878 48.1675485,63.5525296 C48.1179894,63.6775706 48.0793651,63.8080636 48.0532628,63.9427773 L52.6176367,63.9427773" id="Fill-74" fill="#FFFFFF"></path>
                            <path d="M56.0479718,79.5704514 C55.9693122,79.0490072 55.4816578,78.6897119 54.9587302,78.7681484 C54.4358025,78.846409 54.075485,79.3326799 54.1541446,79.8541241 C54.2326279,80.3755683 54.7202822,80.7348636 55.2432099,80.656603 C55.7661376,80.5781665 56.126455,80.0920715 56.0479718,79.5704514" id="Fill-75" fill="#FFFFFF"></path>
                            <path d="M53.2567901,80.522241 C52.7178131,80.8324695 52.5333333,81.51958 52.8444444,82.057028 C53.1555556,82.5943002 53.8447972,82.7782566 54.3835979,82.4680281 C54.9223986,82.1576237 55.1070547,81.4705132 54.7957672,80.933241 C54.4846561,80.395793 53.7954145,80.2118366 53.2567901,80.522241" id="Fill-76" fill="#FFFFFF"></path>
                            <path d="M55.8583774,80.7995825 C55.554321,80.7995825 55.3079365,81.0454439 55.3079365,81.3484619 C55.3079365,81.6514799 55.554321,81.8973412 55.8583774,81.8973412 C56.1622575,81.8973412 56.4088183,81.6514799 56.4088183,81.3484619 C56.4088183,81.0454439 56.1622575,80.7995825 55.8583774,80.7995825" id="Fill-77" fill="#FFFFFF"></path>
                            <path d="M58.1449735,76.5151225 C56.9291005,76.5151225 55.7606702,76.1765795 54.8008818,75.4834896 C54.1259259,74.9959876 53.5932981,74.3602302 53.2271605,73.6240529 C53.1573192,73.652895 53.0897707,73.6863097 53.024515,73.7232416 C53.0149912,73.7286935 53.0056437,73.734673 52.9961199,73.7404766 C52.9416226,73.7724843 52.8890653,73.80713 52.8382716,73.8442378 C52.8253968,73.8537346 52.8128748,73.8630555 52.8003527,73.8727282 C52.7470899,73.9137051 52.6959436,73.9571441 52.6474427,74.0035729 C52.6432099,74.0076178 52.6386243,74.011311 52.6342152,74.0153559 C52.580776,74.0677641 52.5305115,74.1231621 52.4832451,74.1815498 C52.4816578,74.183836 52.4793651,74.1857706 52.4777778,74.187881 C52.4779541,74.1880568 52.4781305,74.1882327 52.4783069,74.1884086 C52.222575,74.5086615 52.0687831,74.9133303 52.0687831,75.3542277 C52.0687831,75.8874549 52.2931217,76.3673946 52.6513228,76.7085757 C52.2920635,76.7859569 52.0488536,77.1267862 52.1044092,77.4943473 C52.1620811,77.8770328 52.5197531,78.1404808 52.903351,78.0829725 C53.2869489,78.02564 53.5513228,77.6688068 53.4934744,77.2862972 C53.4871252,77.2433857 53.4756614,77.2025847 53.4620811,77.1630147 C53.5650794,77.1904499 53.6707231,77.2103228 53.7798942,77.2199955 C53.7626102,77.2975526 53.7525573,77.3777478 53.7525573,77.460405 C53.7525573,78.0671445 54.2460317,78.559219 54.8544974,78.559219 C55.462963,78.559219 55.9564374,78.0671445 55.9564374,77.460405 C55.9564374,77.3214705 55.9289242,77.1892189 55.8816578,77.0669916 C55.9943563,77.1056823 56.108642,77.1412073 56.2239859,77.1740943 C56.0513228,77.4677914 55.9740741,77.8197003 56.0285714,78.1825129 C56.1557319,79.0257928 56.9442681,79.6068558 57.7899471,79.480056 C58.1781305,79.4220201 58.5097002,79.2238185 58.7439153,78.9459494 C58.8908289,79.2431638 59.1968254,79.4480483 59.5516755,79.4480483 C60.0493827,79.4480483 60.4530864,79.0456658 60.4530864,78.5491946 C60.4530864,78.0528993 60.0493827,77.6505167 59.5516755,77.6505167 C59.3853616,77.6505167 59.2301587,77.696242 59.0962963,77.7746785 C59.0941799,77.7576194 59.0938272,77.7409121 59.091358,77.7238531 C59.073545,77.6063742 59.0416226,77.4945231 59,77.3884756 C59.4469136,77.3388813 59.8902998,77.2512997 60.3257496,77.1269621 C60.326455,77.1262586 60.3275132,77.125731 60.3280423,77.1252034 C60.3268078,77.0778954 60.3275132,77.0304114 60.3303351,76.9827516 L60.3303351,76.9823998 C60.3322751,76.9544371 60.3363316,76.9266502 60.3396825,76.8986874 C60.3419753,76.8802214 60.3426808,76.8621071 60.345679,76.843817 C60.3462081,76.8406514 60.3469136,76.8378376 60.347619,76.834672 C60.3479718,76.8322098 60.3486772,76.8295718 60.3492063,76.8271097 C60.3643739,76.7379454 60.3867725,76.6487811 60.4194004,76.5606719 C60.4395062,76.5058016 60.4634921,76.4537451 60.4892416,76.4029197 C60.492769,76.3960609 60.496649,76.3897297 60.5001764,76.3830468 C60.5239859,76.3378491 60.5497354,76.2945859 60.577425,76.2529055 C60.578836,76.2504434 60.5800705,76.2479813 60.5816578,76.245695 C60.5823633,76.2448157 60.5828924,76.2437605 60.5835979,76.2425294 C60.5855379,76.2397156 60.5881834,76.2370776 60.5902998,76.233912 C60.6262787,76.1815037 60.6645503,76.1310301 60.7061728,76.0842496 C60.7079365,76.082315 60.7093474,76.0802046 60.7109347,76.078446 C60.712522,76.0765114 60.7141093,76.074401 60.7156966,76.0726424 C60.7176367,76.0703561 60.7195767,76.067894 60.7216931,76.0656077 C60.7483245,76.0364139 60.7777778,76.0103856 60.8067019,75.9834781 C59.9358025,76.3346835 59.0280423,76.5151225 58.1449735,76.5151225" id="Fill-78" fill="#FFFFFF"></path>
                            <path d="M65.177425,74.5301172 C65.1289242,74.5229067 65.0814815,74.5118271 65.0338624,74.5007475 C65.0148148,74.496175 64.9952381,74.4931852 64.9761905,74.4880851 C64.9375661,74.477709 64.9,74.4641673 64.8622575,74.4511531 C64.8354497,74.4420081 64.8082892,74.4344458 64.7816578,74.4238938 C64.7530864,74.4128142 64.7259259,74.3987449 64.6978836,74.3860825 C64.6640212,74.370958 64.6296296,74.356537 64.5970018,74.339302 C64.5955908,74.3385986 64.5940035,74.3382468 64.5925926,74.3373675 C64.5902998,74.3401814 64.5880071,74.3428194 64.5857143,74.3456332 C64.5222222,74.3145049 64.4601411,74.280035 64.4001764,74.241872 C64.3954145,74.2390581 64.3910053,74.2355408 64.386067,74.2323752 C64.3347443,74.1991364 64.2851852,74.1634355 64.237037,74.1252725 C64.2280423,74.1178861 64.2188713,74.110148 64.2097002,74.1025857 C64.1663139,74.0667089 64.124515,74.0288976 64.084127,73.9889759 C64.0746032,73.9794792 64.0650794,73.9699824 64.0555556,73.9603097 C64.0155203,73.9188052 63.977425,73.8751903 63.9409171,73.8296409 C63.9338624,73.8210234 63.926455,73.8125818 63.9195767,73.8036126 C63.9061728,73.7862019 63.894709,73.7670324 63.8818342,73.7489182 C63.6045855,74.0769092 63.3015873,74.3846756 62.9767196,74.6632482 C62.7273369,74.876926 62.4671958,75.0717861 62.2001764,75.2492354 C62.2051146,75.3843008 62.224515,75.515849 62.261552,75.6401866 C62.2924162,75.6493317 62.3232804,75.6575974 62.3537919,75.668677 C62.408642,75.6890775 62.4611993,75.7124678 62.5121693,75.7381443 C62.527866,75.7460583 62.5425044,75.7548516 62.557672,75.7631173 C62.557672,75.7631173 62.557672,75.7632932 62.5578483,75.7632932 C62.5931217,75.7826385 62.6276896,75.8026873 62.6610229,75.8243189 L62.6610229,75.8244947 C62.7352734,75.8732098 62.803351,75.9284318 62.8664903,75.9880506 C62.8848325,76.0052855 62.9031746,76.0232239 62.9208113,76.0416899 C62.9373898,76.0589248 62.9539683,76.0765114 62.9698413,76.0946257 C62.9984127,76.1275127 63.0257496,76.1612791 63.0513228,76.1964524 C63.0611993,76.21017 63.070194,76.2242393 63.0797178,76.2383086 C63.1014109,76.2699646 63.1216931,76.3026758 63.1409171,76.3360904 C63.1472663,76.34717 63.1537919,76.3575461 63.1597884,76.3688016 C63.184127,76.4139993 63.2059965,76.460428 63.2255732,76.5077361 C63.2285714,76.5151225 63.2312169,76.5225089 63.2342152,76.5298953 C63.2541446,76.5800173 63.2719577,76.6308427 63.2864198,76.6828992 C63.437037,76.7309107 63.5973545,76.7574666 63.7640212,76.7574666 C63.8347443,76.7574666 63.9038801,76.7511354 63.972134,76.7419903 L63.9723104,76.7419903 C64.0001764,76.6565192 64.0363316,76.5740378 64.080776,76.4956013 C64.0813051,76.494722 64.0816578,76.4940185 64.0821869,76.4931392 C64.103351,76.4560314 64.1262787,76.4198029 64.15097,76.3846296 C64.1529101,76.3819916 64.1544974,76.3793536 64.156261,76.3767156 C64.1795414,76.3440044 64.2045855,76.3127002 64.2308642,76.2820994 C64.2349206,76.277351 64.2382716,76.2727785 64.242328,76.2682059 C64.2670194,76.2400673 64.2934744,76.2135115 64.3206349,76.1874832 C64.3269841,76.181152 64.3328042,76.174645 64.3393298,76.1688414 C64.3652557,76.1449235 64.392769,76.1224126 64.4208113,76.1004293 C64.4294533,76.0937464 64.4375661,76.08636 64.4463845,76.079677 C64.4744268,76.0589248 64.5042328,76.0395795 64.5343915,76.0205859 C64.5440917,76.0146064 64.5530864,76.0075718 64.5631393,76.0015923 C64.6037037,75.9776745 64.6455026,75.9555153 64.6890653,75.9354665 C64.7308642,75.9161212 64.7733686,75.8990621 64.8162257,75.8844652 C64.8539683,75.8714511 64.8918871,75.8607232 64.9301587,75.8512264 C64.935097,75.8501712 64.9396825,75.8482367 64.9444444,75.8471815 C65.0306878,75.8266051 65.1176367,75.8151738 65.2042328,75.8118323 C65.286067,75.6222482 65.3319224,75.4134947 65.3319224,75.1938374 C65.3319224,74.9567694 65.277425,74.7327154 65.1825397,74.5313483 C65.180776,74.5309965 65.1790123,74.5304689 65.177425,74.5301172" id="Fill-79" fill="#FFFFFF"></path>
                            <path d="M51.5268078,83.5408138 C51.3603175,82.9567611 50.7502646,82.6176905 50.1643739,82.7837085 C49.5786596,82.9499023 49.2386243,83.5580487 49.405291,84.1422773 C49.5717813,84.7263299 50.1818342,85.0654006 50.7675485,84.8993826 C51.3536155,84.7331887 51.6932981,84.1248665 51.5268078,83.5408138" id="Fill-80" fill="#FFFFFF"></path>
                            <path d="M52.1513228,76.6834268 C52.1015873,76.3536771 51.7932981,76.1266334 51.4627866,76.1760519 C51.1320988,76.2254704 50.9044092,76.532885 50.9539683,76.8626347 C51.0035273,77.1922086 51.3118166,77.4194281 51.6425044,77.3700096 C51.9731922,77.3204153 52.2008818,77.0131765 52.1513228,76.6834268" id="Fill-81" fill="#FFFFFF"></path>
                            <path d="M52.4181658,68.2502758 L52.4181658,68.2504517 C52.4222222,68.2532655 52.4261023,68.256607 52.4301587,68.2594209 C52.4566138,68.2773593 52.4839506,68.2937148 52.5114638,68.3095428 C52.5167549,68.3127084 52.5220459,68.3162257 52.5275132,68.3192155 C52.582716,68.350168 52.6410935,68.3761962 52.7012346,68.3985313 C52.7142857,68.4034555 52.7271605,68.4082039 52.740388,68.4127765 C52.7991182,68.4324735 52.859612,68.447598 52.9216931,68.4585018 C52.9412698,68.4616674 52.9604938,68.464833 52.9802469,68.4674709 L52.9804233,68.4674709 C52.9936508,68.4692296 53.0070547,68.4715159 53.0204586,68.4727469 C53.0601411,68.476616 53.1005291,68.4789023 53.1412698,68.4789023 C53.1714286,68.4789023 53.2007055,68.4755608 53.2303351,68.4730987 C53.4968254,67.8593246 53.8532628,67.2687648 54.2938272,66.7221717 C54.257672,66.6402179 54.2164021,66.561078 54.1645503,66.4893244 C54.1368607,66.4509855 54.1068783,66.4144053 54.0751323,66.3795837 C54.0731922,66.3771216 54.0710758,66.3750112 54.0689594,66.3725491 C54.0377425,66.3386068 54.0047619,66.3062474 53.9700176,66.2758225 C53.9687831,66.2747673 53.9675485,66.273888 53.9663139,66.2726569 C53.8934744,66.2095208 53.8134039,66.1546505 53.7275132,66.1092769 C53.7239859,66.1075182 53.7204586,66.1059354 53.7169312,66.1043526 C53.6800705,66.0853591 53.6421517,66.0684759 53.6035273,66.0531755 C53.5917108,66.0484271 53.5797178,66.0443822 53.5675485,66.0399855 C53.5361552,66.02873 53.5040564,66.0185298 53.4712522,66.0097365 C53.4566138,66.0056915 53.4419753,66.0018225 53.4271605,65.9983051 C53.394709,65.9907429 53.3613757,65.9849393 53.3280423,65.9801909 C53.313933,65.9779046 53.3,65.9750907 53.2857143,65.9735079 C53.2382716,65.9680561 53.1902998,65.9647146 53.1412698,65.9647146 C53.094709,65.9647146 53.0488536,65.9680561 53.003351,65.9731562 C52.9950617,65.9738597 52.9869489,65.9750907 52.978836,65.9763218 C52.9716049,65.9775529 52.9643739,65.9786081 52.9571429,65.9796633 C52.9255732,65.9842358 52.8943563,65.9896877 52.8634921,65.9965465 C52.8599647,65.9974258 52.856261,65.9983051 52.8529101,65.9991845 C52.840388,66.0021742 52.8283951,66.0053398 52.8162257,66.0085054 C52.784127,66.0171228 52.7525573,66.0266196 52.7216931,66.0376992 C52.7095238,66.04192 52.6977072,66.0461408 52.6858907,66.0507133 C52.6500882,66.0644309 52.6153439,66.0799072 52.5813051,66.0967904 C52.5781305,66.0983732 52.5747795,66.099956 52.5717813,66.1013629 C52.5666667,66.1041768 52.561552,66.1068148 52.5566138,66.1094528 C52.5185185,66.1293257 52.4816578,66.1511331 52.4460317,66.1746992 C52.4428571,66.1769855 52.4396825,66.1787442 52.4365079,66.1808546 C52.3603175,66.2323835 52.2897707,66.2925298 52.2266314,66.3591832 C52.2232804,66.3625247 52.2202822,66.3662179 52.2171076,66.3695593 C52.1888889,66.3999842 52.1624339,66.4319919 52.1372134,66.464879 C52.1340388,66.4690998 52.1306878,66.4731447 52.1275132,66.4773655 C52.0744268,66.5492949 52.0291005,66.6270279 51.9920635,66.7095093 C51.987478,66.7195337 51.9834215,66.7295581 51.9793651,66.7399342 C51.9661376,66.7710626 51.9546737,66.8027186 51.9440917,66.835078 C51.940388,66.8466852 51.9361552,66.8584682 51.9328042,66.8704272 C51.9204586,66.912811 51.9093474,66.9558983 51.9014109,67.0000408 C51.9005291,66.9989856 51.8996473,66.9977545 51.8987654,66.9965234 C51.886067,67.0681011 51.8781305,67.1414375 51.8781305,67.2165325 C51.8781305,67.2997173 51.8878307,67.3800883 51.9038801,67.4583489 C51.9165785,67.5251782 51.9354497,67.5897212 51.9582011,67.6523297 C51.9583774,67.6528573 51.9587302,67.6535607 51.9589065,67.6540883 C51.9716049,67.6882064 51.9855379,67.7217969 52.0008818,67.7545081 C52.0012346,67.7550357 52.0014109,67.7555633 52.0015873,67.7560909 C52.0955908,67.9548201 52.2393298,68.1252347 52.4181658,68.2502758" id="Fill-82" fill="#FFFFFF"></path>
                            <path d="M51.4977072,85.2250874 C51.1714286,85.2739783 50.9469136,85.5771721 50.9957672,85.9025252 C51.0447972,86.2277024 51.3488536,86.4517563 51.6751323,86.4028654 C52.0012346,86.3539745 52.2259259,86.0509565 52.1770723,85.7256035 C52.127866,85.4002504 51.8238095,85.1763723 51.4977072,85.2250874" id="Fill-83" fill="#FFFFFF"></path>
                            <path d="M49.6820106,81.4842308 C49.6820106,81.7890075 49.929806,82.035924 50.2354497,82.035924 C50.5410935,82.035924 50.7890653,81.7890075 50.7890653,81.4842308 C50.7890653,81.1794541 50.5410935,80.9323617 50.2354497,80.9323617 C49.929806,80.9323617 49.6820106,81.1794541 49.6820106,81.4842308" id="Fill-84" fill="#FFFFFF"></path>
                            <path d="M52.8386243,82.8862386 C52.3955908,82.7680563 51.940388,83.0302733 51.8216931,83.4718741 C51.7029982,83.9134749 51.9659612,84.3673864 52.4089947,84.4857446 C52.8518519,84.6041027 53.307231,84.3418857 53.4257496,83.9001091 C53.5444444,83.4583324 53.2813051,83.0044209 52.8386243,82.8862386" id="Fill-85" fill="#FFFFFF"></path>
                            <path d="M67.877425,63.429423 C68.4742504,63.6482009 69.1358025,63.3430725 69.3552028,62.7481161 C69.5744268,62.1529839 69.2686067,61.4933086 68.6719577,61.2745306 C68.0751323,61.0559286 67.4135802,61.3608811 67.1941799,61.9558375 C66.9747795,62.5509698 67.2805996,63.2106451 67.877425,63.429423" id="Fill-86" fill="#FFFFFF"></path>
                            <path d="M69.2502646,64.8859494 C69.5830688,65.6038365 70.4366843,65.9165272 71.1564374,65.584843 C71.8763668,65.252807 72.1901235,64.4017889 71.8573192,63.6839018 C71.524515,62.9660147 70.6708995,62.6533241 69.9511464,62.9850083 C69.2312169,63.3170443 68.9174603,64.1680623 69.2502646,64.8859494" id="Fill-87" fill="#FFFFFF"></path>
                            <path d="M66.4710758,70.324973 L66.4712522,70.324973 L66.4710758,70.3251489 L66.4710758,70.324973 Z M63.4945326,64.8444449 C64.7816578,65.7740753 65.5395062,67.2033425 65.6283951,68.8691501 C65.717284,70.5326714 65.127866,72.2297832 63.9686067,73.6474432 C63.9405644,73.6820889 63.910582,73.7151518 63.8818342,73.7489182 C63.894709,73.7670324 63.9061728,73.7862019 63.9195767,73.8036126 C63.926455,73.8125818 63.9338624,73.8210234 63.9409171,73.8296409 C63.977425,73.8751903 64.0155203,73.9188052 64.0555556,73.9603097 C64.0650794,73.9699824 64.0746032,73.9794792 64.084127,73.9889759 C64.124515,74.0288976 64.1663139,74.0667089 64.2097002,74.1025857 C64.2188713,74.110148 64.2280423,74.1178861 64.237037,74.1252725 C64.2851852,74.1634355 64.3347443,74.1991364 64.386067,74.2323752 C64.3910053,74.2355408 64.3954145,74.2390581 64.4001764,74.241872 C64.4601411,74.280035 64.5222222,74.3145049 64.5857143,74.3456332 C64.5880071,74.3428194 64.5902998,74.3401814 64.5925926,74.3373675 C65.0643739,74.5878014 65.6402116,74.6301852 66.1659612,74.4056037 C66.1574956,74.5783046 66.1887125,74.7554022 66.2664903,74.923003 C66.5232804,75.4771584 67.1820106,75.7186231 67.7373898,75.4623856 C68.2929453,75.2063239 68.5349206,74.5496384 68.2781305,73.9958347 C68.0742504,73.5563443 67.6178131,73.3148796 67.1606702,73.3609566 C67.3201058,72.925687 67.3137566,72.4295676 67.1031746,71.9756561 C67.0269841,71.8113968 66.9285714,71.6643724 66.8142857,71.5352864 C67.0978836,71.4726779 67.310582,71.2211888 67.310582,70.9195777 C67.310582,70.8195097 67.2853616,70.7263004 67.243739,70.6422362 C67.5359788,70.6805751 67.8417989,70.641181 68.1289242,70.5087535 C68.9373898,70.1359165 69.2897707,69.1800821 68.9160494,68.37391 C68.7850088,68.0911166 68.5811287,67.8661833 68.3380952,67.7070242 C68.4514991,67.74677 68.5726631,67.7692809 68.6994709,67.7692809 C69.3075838,67.7692809 69.8007055,67.2721063 69.8007055,66.6588597 C69.8007055,66.0456132 69.3075838,65.5484386 68.6994709,65.5484386 C68.0911817,65.5484386 67.59806,66.0456132 67.59806,66.6588597 C67.59806,67.0302898 67.7797178,67.3584567 68.057672,67.5599997 C67.6585538,67.3987302 67.1968254,67.3946852 66.7751323,67.5890177 C66.6444444,67.6493399 66.5271605,67.7260177 66.4213404,67.8135993 C66.4084656,67.7504632 66.3936508,67.6882064 66.3790123,67.625598 C67.0746032,67.0793566 67.4112875,66.1884168 67.2525573,65.3212191 C67.4292769,65.5013064 67.6753086,65.6135092 67.9477954,65.6135092 C68.4848325,65.6135092 68.9202822,65.1792948 68.9202822,64.6436054 C68.9202822,64.1080919 68.4848325,63.6737016 67.9477954,63.6737016 C67.4361552,63.6737016 67.0178131,64.0678184 66.9790123,64.5678069 C66.8268078,64.3001381 66.6285714,64.0727427 66.3994709,63.8887863 C66.6400353,63.6198864 66.712522,63.2240109 66.5511464,62.8757952 C66.3342152,62.408342 65.7784832,62.2046886 65.3095238,62.4206527 C64.9375661,62.5922984 64.7329806,62.9765667 64.7723104,63.3617144 C64.4751323,63.3768389 64.1760141,63.4459544 63.889418,63.5780302 C63.8358025,63.6028274 63.7853616,63.6311419 63.7345679,63.6591047 C63.8465608,63.4533408 63.9100529,63.2176797 63.9100529,62.9670699 C63.9100529,62.1642393 63.2574956,61.5135332 62.452381,61.5135332 C61.6559083,61.5135332 61.0095238,62.1510493 60.9959436,62.9420969 C60.9959436,62.9505385 60.994709,62.9586283 60.994709,62.9670699 C60.994709,63.0008363 60.9962963,63.0342509 60.9989418,63.067138 C60.9996473,63.0754037 61.0008818,63.0834936 61.0015873,63.0915834 C61.0037037,63.1147978 61.0059965,63.1378363 61.0091711,63.1608748 C60.6781305,63.1128633 60.329806,63.155423 60.0035273,63.3061406 C59.9529101,63.3291791 59.9045855,63.3552073 59.8574956,63.3822908 C59.8354497,63.3949532 59.8146384,63.4088466 59.7934744,63.4225642 C59.7716049,63.4364577 59.7497354,63.4503511 59.7287478,63.4651239 C59.6984127,63.4864037 59.6689594,63.5087388 59.6402116,63.5316014 C59.6345679,63.536174 59.6289242,63.5405706 59.6232804,63.545319 C59.5082892,63.6390559 59.4070547,63.745631 59.3204586,63.8617029 C60.8135802,63.6747568 62.3007055,63.9819956 63.4945326,64.8444449 L63.4945326,64.8444449 Z" id="Fill-88" fill="#FFFFFF"></path>
                            <path d="M71.9901235,66.6862949 C71.9901235,66.2225349 71.6134039,65.8467082 71.1483245,65.8467082 C70.6834215,65.8467082 70.3065256,66.2225349 70.3065256,66.6862949 C70.3065256,67.149879 70.6834215,67.5257058 71.1483245,67.5257058 C71.6134039,67.5257058 71.9901235,67.149879 71.9901235,66.6862949" id="Fill-89" fill="#FFFFFF"></path>
                            <path d="M61.2045855,61.870894 C61.7654321,61.6125461 62.0098765,60.9495293 61.7504409,60.3904497 C61.4911817,59.83137 60.826455,59.587619 60.2657848,59.8461428 C59.7049383,60.1046666 59.4604938,60.7675075 59.7197531,61.326763 C59.9791887,61.8858426 60.643739,62.1295936 61.2045855,61.870894" id="Fill-90" fill="#FFFFFF"></path>
                            <path d="M69.426455,76.6600365 C69.0902998,75.934763 68.2280423,75.6187309 67.5008818,75.9539325 C66.773545,76.2893099 66.4566138,77.1489454 66.7929453,77.8742189 C67.1292769,78.5993165 67.991358,78.9155245 68.7186949,78.5801471 C69.4460317,78.2449455 69.762963,77.3851342 69.426455,76.6600365" id="Fill-91" fill="#FFFFFF"></path>
                            <path d="M67.2462081,78.9652948 C67.3451499,78.6974501 67.207231,78.4004115 66.9386243,78.3019263 C66.6698413,78.203441 66.372134,78.3407928 66.2731922,78.6086375 C66.1746032,78.876658 66.3121693,79.1735207 66.5809524,79.2721818 C66.8495591,79.3704912 67.1474427,79.2333153 67.2462081,78.9652948" id="Fill-92" fill="#FFFFFF"></path>
                            <path d="M67.3248677,80.6478097 C67.7320988,80.7969445 68.1834215,80.5888944 68.333157,80.1828186 C68.4828924,79.7769187 68.2740741,79.3267004 67.8670194,79.1775656 C67.4597884,79.028255 67.0082892,79.2364809 66.8587302,79.6423808 C66.7089947,80.0484566 66.9178131,80.4983231 67.3248677,80.6478097" id="Fill-93" fill="#FFFFFF"></path>
                            <path d="M59.0765432,71.3792928 C59.3696649,71.3792928 59.6074074,71.1422247 59.6074074,70.8499346 C59.6074074,70.5576444 59.3696649,70.3204005 59.0765432,70.3204005 C58.7834215,70.3204005 58.545679,70.5576444 58.545679,70.8499346 C58.545679,71.1422247 58.7834215,71.3792928 59.0765432,71.3792928" id="Fill-94" fill="#FFFFFF"></path>
                            <path d="M67.6262787,72.2494803 C67.6262787,72.8133083 68.0846561,73.2703854 68.6500882,73.2703854 C69.2155203,73.2703854 69.6740741,72.8133083 69.6740741,72.2494803 C69.6740741,71.6856522 69.2155203,71.2285752 68.6500882,71.2285752 C68.0846561,71.2285752 67.6262787,71.6856522 67.6262787,72.2494803" id="Fill-95" fill="#FFFFFF"></path>
                            <path d="M70.5924162,70.5697792 C70.5924162,70.1309923 70.2356261,69.7752143 69.7954145,69.7752143 C69.3552028,69.7752143 68.9984127,70.1309923 68.9984127,70.5697792 C68.9984127,71.008742 69.3552028,71.3646959 69.7954145,71.3646959 C70.2356261,71.3646959 70.5924162,71.008742 70.5924162,70.5697792" id="Fill-96" fill="#FFFFFF"></path>
                            <path d="M70.6737213,67.8019921 C70.5089947,67.44639 70.0864198,67.2916275 69.729806,67.4558868 C69.373545,67.620322 69.2181658,68.0416981 69.3828924,68.3971243 C69.5477954,68.7525506 69.970194,68.907489 70.3268078,68.7432296 C70.6830688,68.5787945 70.838448,68.1574183 70.6737213,67.8019921" id="Fill-97" fill="#FFFFFF"></path>
                            <path d="M73.1641975,65.3481266 C73.7012346,65.3481266 74.1366843,64.9137364 74.1366843,64.378047 C74.1366843,63.8425334 73.7012346,63.4084949 73.1641975,63.4084949 C72.6269841,63.4084949 72.1915344,63.8425334 72.1915344,64.378047 C72.1915344,64.9137364 72.6269841,65.3481266 73.1641975,65.3481266" id="Fill-98" fill="#FFFFFF"></path>
                            <path d="M70.2356261,77.958459 C69.7208113,77.958459 69.303351,78.374735 69.303351,78.8880894 C69.303351,79.4016196 69.7208113,79.8178956 70.2356261,79.8178956 C70.7506173,79.8178956 71.1680776,79.4016196 71.1680776,78.8880894 C71.1680776,78.374735 70.7506173,77.958459 70.2356261,77.958459" id="Fill-99" fill="#FFFFFF"></path>
                            <path d="M70.6345679,73.3157589 C69.9167549,73.0523109 69.1208113,73.4193443 68.8569665,74.1352969 C68.5931217,74.8508977 68.9610229,75.6445833 69.678836,75.9076796 C70.396649,76.1709518 71.1925926,75.8039183 71.4564374,75.0881416 C71.7202822,74.3723649 71.3522046,73.5788552 70.6345679,73.3157589" id="Fill-100" fill="#FFFFFF"></path>
                            <path d="M67.3024691,84.0247984 C66.8631393,84.0247984 66.5070547,84.3800488 66.5070547,84.8181323 C66.5070547,85.2562157 66.8631393,85.6114661 67.3024691,85.6114661 C67.7419753,85.6114661 68.09806,85.2562157 68.09806,84.8181323 C68.09806,84.3800488 67.7419753,84.0247984 67.3024691,84.0247984" id="Fill-101" fill="#FFFFFF"></path>
                            <path d="M68.8604938,80.4907609 C68.0708995,80.4907609 67.4308642,81.1289804 67.4308642,81.9165107 C67.4308642,82.7038651 68.0708995,83.3422605 68.8604938,83.3422605 C69.6502646,83.3422605 70.2904762,82.7038651 70.2904762,81.9165107 C70.2904762,81.1289804 69.6502646,80.4907609 68.8604938,80.4907609" id="Fill-102" fill="#FFFFFF"></path>
                            <path d="M74.2349206,65.7158635 C73.7760141,65.7158635 73.4038801,66.0869418 73.4038801,66.5445465 C73.4038801,67.0021512 73.7760141,67.3730536 74.2349206,67.3730536 C74.6940035,67.3730536 75.0659612,67.0021512 75.0659612,66.5445465 C75.0659612,66.0869418 74.6940035,65.7158635 74.2349206,65.7158635" id="Fill-103" fill="#FFFFFF"></path>
                            <path d="M71.3455026,68.6278612 C70.9063492,68.8306353 70.7148148,69.3497932 70.9178131,69.7878767 C71.121164,70.2257843 71.6417989,70.4167754 72.0811287,70.214353 C72.5204586,70.0115789 72.7118166,69.492421 72.5088183,69.0543375 C72.3058201,68.616254 71.7848325,68.4254389 71.3455026,68.6278612" id="Fill-104" fill="#FFFFFF"></path>
                            <path d="M72.5948854,65.762644 C72.3514991,65.8748468 72.2455026,66.1625644 72.3580247,66.4052602 C72.4705467,66.6477802 72.7590829,66.7536518 73.0024691,66.641449 C73.2458554,66.5292461 73.3516755,66.2415285 73.2391534,65.9988327 C73.1268078,65.7561369 72.8382716,65.6504412 72.5948854,65.762644" id="Fill-105" fill="#FFFFFF"></path>
                            <path d="M61.8261023,67.2072115 C61.7574956,67.2323604 61.6888889,67.2582128 61.621164,67.2895171 C61.4821869,67.3535325 61.3530864,67.4296827 61.2312169,67.513571 C61.2257496,67.5172642 61.2204586,67.5206057 61.2153439,67.5242988 C61.1585538,67.5636929 61.1029982,67.604494 61.0497354,67.6475813 C60.8164021,67.4108649 60.4920635,67.2640164 60.1329806,67.2640164 C60.0664903,67.2640164 60.0017637,67.2705235 59.9380952,67.2801961 C59.9342152,67.2808996 59.9303351,67.2814272 59.9262787,67.2819548 L59.9261023,67.2819548 C59.8753086,67.2903964 59.8252205,67.3009484 59.7763668,67.3150177 C59.7733686,67.315897 59.7703704,67.3164246 59.7677249,67.317304 C59.7111111,67.3340113 59.6566138,67.3545877 59.6035273,67.3786814 C59.6022928,67.379209 59.6012346,67.3797366 59.6,67.3802642 C59.5469136,67.4043579 59.4959436,67.4319689 59.4467372,67.4629214 C59.3569665,67.5195505 59.2746032,67.5869073 59.2015873,67.6634093 C59.2008818,67.6641127 59.2003527,67.6649921 59.1996473,67.6656955 C59.1661376,67.7010447 59.1347443,67.7383284 59.105291,67.7771949 C59.1012346,67.7826468 59.0971781,67.7879227 59.0931217,67.7933746 C59.0650794,67.8320652 59.0388007,67.8718111 59.0149912,67.9134914 C59.0134039,67.9159536 59.0119929,67.9184157 59.0104056,67.9208778 C58.9851852,67.9657238 58.9626102,68.0119767 58.9428571,68.0599882 C58.9405644,68.0654401 58.9388007,68.0712437 58.9366843,68.0765197 C58.9209877,68.1164414 58.9074074,68.1570666 58.8954145,68.1987469 C58.8915344,68.2128162 58.8880071,68.2270614 58.8846561,68.2413066 C58.8758377,68.2768317 58.8687831,68.3128843 58.8631393,68.3496404 C58.8606702,68.3642373 58.8580247,68.3788342 58.8564374,68.393607 C58.8504409,68.4440807 58.8462081,68.495082 58.8462081,68.5469626 C58.8462081,68.5863567 58.8483245,68.6252232 58.8518519,68.6633862 C58.8553792,68.7011975 58.8606702,68.7384812 58.8673721,68.7754132 L58.8673721,68.7757649 C58.8726631,68.8049588 58.8797178,68.8338009 58.8869489,68.8622913 L58.8869489,68.8624671 C58.8878307,68.8659845 58.8887125,68.8693259 58.889418,68.8728433 C58.8989418,68.9085442 58.9097002,68.9433657 58.9222222,68.9778356 C58.9239859,68.9827598 58.9255732,68.98786 58.9275132,68.9927842 C58.9365079,69.0170538 58.9462081,69.0409716 58.9566138,69.0643619 L58.9567901,69.0643619 C58.9611993,69.074738 58.9659612,69.0849383 58.9708995,69.0951385 C58.9975309,69.1508882 59.0273369,69.2045275 59.0613757,69.2553529 L59.061552,69.2553529 C59.0654321,69.2613324 59.0696649,69.2673118 59.0738977,69.2729396 C59.0941799,69.3024851 59.1156966,69.3309755 59.1382716,69.3585866 C59.1405644,69.3610487 59.1426808,69.3635108 59.1446208,69.3661488 C59.2,69.4320988 59.2619048,69.492421 59.3291005,69.5462361 C59.3382716,69.5537984 59.3474427,69.5617124 59.3569665,69.568747 C59.3716049,69.5796508 59.3867725,69.589851 59.4015873,69.6002272 C59.4174603,69.6111309 59.4333333,69.6222105 59.4497354,69.6324107 C59.4645503,69.6417316 59.4798942,69.650525 59.4952381,69.6591424 C59.4961199,69.65967 59.4971781,69.6600218 59.4978836,69.6605494 C59.5410935,69.6849948 59.5853616,69.7068023 59.6313933,69.7261476 C59.6386243,69.7291373 59.6455026,69.7324788 59.6529101,69.7352926 C59.6850088,69.7483068 59.7178131,69.7595622 59.7511464,69.7697625 C59.7552028,69.7711694 59.7594356,69.7725763 59.7634921,69.7739833 C59.7895944,69.7817214 59.815873,69.7884043 59.8425044,69.7945596 C59.8559083,69.7973735 59.8691358,69.8005391 59.8825397,69.8031771 L59.882716,69.803353 C59.9333333,69.8132015 59.9844797,69.8212914 60.037037,69.8251604 C60.0453263,70.187973 60.1255732,70.5550064 60.2881834,70.9053325 C60.3377425,71.0124352 60.3952381,71.1126791 60.4564374,71.2099333 C60.4626102,71.2192543 60.4684303,71.2285752 60.4746032,71.238072 C60.475485,71.2394789 60.4763668,71.24071 60.4772487,71.241941 C60.5206349,71.3087703 60.5664903,71.3734892 60.6148148,71.4353942 C60.6262787,71.450167 60.6375661,71.4651156 60.6495591,71.4797126 C60.6511464,71.4816471 60.6530864,71.4835816 60.6546737,71.4855162 C60.6996473,71.5403865 60.7463845,71.5927947 60.7948854,71.6432684 C60.7959436,71.6444995 60.7970018,71.6455547 60.7978836,71.646434 C60.8118166,71.6610309 60.8248677,71.6763313 60.8391534,71.6904006 C60.8417989,71.6930386 60.8444444,71.695149 60.8470899,71.6974353 C61.0816578,71.9288756 61.354321,72.1123044 61.6495591,72.2443802 C61.7014109,72.1873994 61.7518519,72.1293635 61.8005291,72.0700964 C62.5070547,71.2055367 62.9017637,70.1807625 62.856261,69.3286893 C62.8097002,68.4558638 62.4435626,67.7110691 61.8261023,67.2072115" id="Fill-106" fill="#FFFFFF"></path>
                            <path d="M65.8243386,78.3837042 C66.5022928,78.0711894 66.7978836,77.2695899 66.4844797,76.593559 C66.1708995,75.9173522 65.3671958,75.6227758 64.6890653,75.9354665 C64.0109347,76.2479813 63.7155203,77.049405 64.0291005,77.7256117 C64.3425044,78.4016426 65.1463845,78.696219 65.8243386,78.3837042" id="Fill-107" fill="#FFFFFF"></path>
                            <path d="M63.5590829,77.629061 C63.4008818,77.629061 63.2582011,77.6937799 63.1553792,77.7980687 C63.1901235,77.7342292 63.2223986,77.6681034 63.2481481,77.5977568 C63.4707231,76.9943588 63.2791887,76.3411905 62.8188713,75.9439081 C62.8135802,75.9393356 62.8084656,75.934763 62.8031746,75.9305422 C62.7719577,75.9041623 62.7396825,75.8793651 62.7061728,75.8556231 C62.691358,75.8448952 62.6763668,75.8345191 62.6610229,75.8243189 C62.6276896,75.8026873 62.5931217,75.7826385 62.5578483,75.7632932 C62.5425044,75.7550275 62.527866,75.7460583 62.5121693,75.7381443 C62.4611993,75.7124678 62.408642,75.6890775 62.3537919,75.668677 C62.3232804,75.6575974 62.2924162,75.6493317 62.261552,75.6401866 C62.224515,75.515849 62.2051146,75.3843008 62.2001764,75.2492354 C61.7537919,75.5455704 61.2858907,75.7905525 60.8067019,75.9834781 C60.7777778,76.0103856 60.7483245,76.0364139 60.7216931,76.0656077 C60.7195767,76.067894 60.7176367,76.0703561 60.7156966,76.0726424 C60.5902998,76.2110493 60.4880071,76.374781 60.4194004,76.5606719 C60.386067,76.6510673 60.3627866,76.7428697 60.347619,76.834672 C60.3469136,76.8378376 60.3462081,76.8406514 60.345679,76.843817 C60.3382716,76.8900699 60.3335097,76.9361469 60.3303351,76.9823998 C60.3303351,76.9832792 60.3301587,76.9841585 60.3301587,76.9850378 C60.3273369,77.0318183 60.3268078,77.0785988 60.3280423,77.1252034 C60.3275132,77.125731 60.326455,77.1262586 60.3257496,77.1269621 C60.3266314,77.1266104 60.3273369,77.1264345 60.3280423,77.1262586 C60.3470899,77.7203357 60.7197531,78.2718531 61.3137566,78.4895758 C61.94903,78.7224231 62.6402116,78.5020624 63.0308642,77.9927529 C63.0065256,78.0555373 62.9918871,78.1232459 62.9918871,78.1946477 C62.9918871,78.5069866 63.245679,78.7602344 63.5590829,78.7602344 C63.8723104,78.7602344 64.1262787,78.5069866 64.1262787,78.1946477 C64.1262787,77.8823088 63.8723104,77.629061 63.5590829,77.629061" id="Fill-108" fill="#FFFFFF"></path>
                            <path d="M60.8888889,67.1196466 C60.6171076,66.7847885 60.327866,66.5954622 60.0273369,66.5496466 C60.2954145,67.0044339 60.5910053,67.2058878 60.8888889,67.1196466" id="Fill-109" fill="#FFFFFF"></path>
                            <path d="M65.291358,78.6902395 C64.9104056,78.6902395 64.6014109,78.9983577 64.6014109,79.3782293 C64.6014109,79.7582769 64.9104056,80.0662191 65.291358,80.0662191 C65.6724868,80.0662191 65.9814815,79.7582769 65.9814815,79.3782293 C65.9814815,78.9983577 65.6724868,78.6902395 65.291358,78.6902395" id="Fill-110" fill="#FFFFFF"></path>
                            <path d="M65.505291,83.109765 C65.1846561,83.2576687 65.0449735,83.636661 65.1931217,83.9562105 C65.3414462,84.2761117 65.7215168,84.415398 66.0421517,84.2674942 C66.3627866,84.1197663 66.5024691,83.740774 66.354321,83.4208728 C66.2061728,83.1013234 65.8259259,82.9618612 65.505291,83.109765" id="Fill-111" fill="#FFFFFF"></path>
                            <path d="M66.7089947,82.3100999 C67.2126984,81.8080011 67.2126984,80.9935632 66.7089947,80.4912885 C66.205291,79.9890137 65.3887125,79.9890137 64.8850088,80.4912885 C64.3813051,80.9935632 64.3813051,81.8080011 64.8850088,82.3100999 C65.3887125,82.8123747 66.205291,82.8123747 66.7089947,82.3100999" id="Fill-112" fill="#FFFFFF"></path>
                        </g>
                    </g>
                </g>
            </g>
        </g>
    </g>
</svg>